<svg width="231" height="100" viewBox="0 0 231 100" fill="none" xmlns="http://www.w3.org/2000/svg">
<path fill-rule="evenodd" clip-rule="evenodd" d="M159.125 46.875C158.296 46.875 157.501 47.2042 156.915 47.7903C156.329 48.3763 156 49.1712 156 50C156 50.8288 156.329 51.6237 156.915 52.2097C157.501 52.7958 158.296 53.125 159.125 53.125H195.331L181.913 66.5375C181.622 66.828 181.391 67.173 181.234 67.5526C181.077 67.9322 180.996 68.3391 180.996 68.75C180.996 69.1609 181.077 69.5678 181.234 69.9474C181.391 70.327 181.622 70.672 181.913 70.9625C182.203 71.2531 182.548 71.4835 182.928 71.6408C183.307 71.798 183.714 71.8789 184.125 71.8789C184.536 71.8789 184.943 71.798 185.322 71.6408C185.702 71.4835 186.047 71.2531 186.337 70.9625L205.087 52.2125C205.379 51.9222 205.609 51.5774 205.767 51.1977C205.924 50.8181 206.006 50.411 206.006 50C206.006 49.589 205.924 49.1819 205.767 48.8023C205.609 48.4226 205.379 48.0778 205.087 47.7875L186.337 29.0375C186.047 28.7469 185.702 28.5165 185.322 28.3592C184.943 28.202 184.536 28.121 184.125 28.121C183.714 28.121 183.307 28.202 182.928 28.3592C182.548 28.5165 182.203 28.7469 181.913 29.0375C181.622 29.328 181.391 29.673 181.234 30.0526C181.077 30.4322 180.996 30.8391 180.996 31.25C180.996 31.6609 181.077 32.0678 181.234 32.4474C181.391 32.827 181.622 33.172 181.913 33.4625L195.331 46.875H159.125Z" fill="#E5CEC5"/>
<path fill-rule="evenodd" clip-rule="evenodd" d="M71.875 46.875C72.7038 46.875 73.4987 47.2042 74.0847 47.7903C74.6708 48.3763 75 49.1712 75 50C75 50.8288 74.6708 51.6237 74.0847 52.2097C73.4987 52.7958 72.7038 53.125 71.875 53.125H35.6687L49.0875 66.5375C49.3781 66.828 49.6085 67.173 49.7658 67.5526C49.923 67.9322 50.0039 68.3391 50.0039 68.75C50.0039 69.1609 49.923 69.5678 49.7658 69.9474C49.6085 70.327 49.3781 70.672 49.0875 70.9625C48.797 71.2531 48.452 71.4835 48.0724 71.6408C47.6928 71.798 47.2859 71.8789 46.875 71.8789C46.4641 71.8789 46.0572 71.798 45.6776 71.6408C45.298 71.4835 44.953 71.2531 44.6625 70.9625L25.9125 52.2125C25.6215 51.9222 25.3906 51.5774 25.233 51.1977C25.0755 50.8181 24.9944 50.411 24.9944 50C24.9944 49.589 25.0755 49.1819 25.233 48.8023C25.3906 48.4226 25.6215 48.0778 25.9125 47.7875L44.6625 29.0375C44.953 28.7469 45.298 28.5165 45.6776 28.3592C46.0572 28.202 46.4641 28.121 46.875 28.121C47.2859 28.121 47.6928 28.202 48.0724 28.3592C48.452 28.5165 48.797 28.7469 49.0875 29.0375C49.3781 29.328 49.6085 29.673 49.7658 30.0526C49.923 30.4322 50.0039 30.8391 50.0039 31.25C50.0039 31.6609 49.923 32.0678 49.7658 32.4474C49.6085 32.827 49.3781 33.172 49.0875 33.4625L35.6687 46.875H71.875Z" fill="#E5CEC5"/>
<path fill-rule="evenodd" clip-rule="evenodd" d="M231 50C231 63.2608 225.732 75.9785 216.355 85.3553C206.979 94.7322 194.261 100 181 100H50C36.7392 100 24.0215 94.7322 14.6447 85.3553C5.26784 75.9785 0 63.2608 0 50C0 36.7392 5.26784 24.0215 14.6447 14.6447C24.0215 5.26784 36.7392 0 50 0H181C194.261 0 206.979 5.26784 216.355 14.6447C225.732 24.0215 231 36.7392 231 50ZM50 93.75C38.3968 93.75 27.2688 89.1406 19.0641 80.9359C10.8594 72.7312 6.25 61.6032 6.25 50C6.25 38.3968 10.8594 27.2688 19.0641 19.0641C27.2688 10.8594 38.3968 6.25 50 6.25H112.375V93.75H50ZM74.0847 47.7903C73.4987 47.2042 72.7038 46.875 71.875 46.875H35.6687L49.0875 33.4625C49.3781 33.172 49.6085 32.827 49.7658 32.4474C49.923 32.0678 50.0039 31.6609 50.0039 31.25C50.0039 30.8391 49.923 30.4322 49.7658 30.0526C49.6085 29.673 49.3781 29.328 49.0875 29.0375C48.797 28.7469 48.452 28.5165 48.0724 28.3592C47.6928 28.202 47.2859 28.121 46.875 28.121C46.4641 28.121 46.0572 28.202 45.6776 28.3592C45.298 28.5165 44.953 28.7469 44.6625 29.0375L25.9125 47.7875C25.6215 48.0778 25.3906 48.4226 25.233 48.8023C25.0755 49.1819 24.9944 49.589 24.9944 50C24.9944 50.411 25.0755 50.8181 25.233 51.1977C25.3906 51.5774 25.6215 51.9222 25.9125 52.2125L44.6625 70.9625C44.953 71.2531 45.298 71.4835 45.6776 71.6408C46.0572 71.798 46.4641 71.8789 46.875 71.8789C47.2859 71.8789 47.6928 71.798 48.0724 71.6408C48.452 71.4835 48.797 71.2531 49.0875 70.9625C49.3781 70.672 49.6085 70.327 49.7658 69.9474C49.923 69.5678 50.0039 69.1609 50.0039 68.75C50.0039 68.3391 49.923 67.9322 49.7658 67.5526C49.6085 67.173 49.3781 66.828 49.0875 66.5375L35.6687 53.125H71.875C72.7038 53.125 73.4987 52.7958 74.0847 52.2097C74.6708 51.6237 75 50.8288 75 50C75 49.1712 74.6708 48.3763 74.0847 47.7903ZM211.936 80.9359C203.731 89.1406 192.603 93.75 181 93.75H118.625V6.25H181C192.603 6.25 203.731 10.8594 211.936 19.0641C220.141 27.2688 224.75 38.3968 224.75 50C224.75 61.6032 220.141 72.7312 211.936 80.9359ZM159.125 46.875C158.296 46.875 157.501 47.2042 156.915 47.7903C156.329 48.3763 156 49.1712 156 50C156 50.8288 156.329 51.6237 156.915 52.2097C157.501 52.7958 158.296 53.125 159.125 53.125H195.331L181.913 66.5375C181.622 66.828 181.391 67.173 181.234 67.5526C181.077 67.9322 180.996 68.3391 180.996 68.75C180.996 69.1609 181.077 69.5678 181.234 69.9474C181.391 70.327 181.622 70.672 181.913 70.9625C182.203 71.2531 182.548 71.4835 182.928 71.6408C183.307 71.798 183.714 71.8789 184.125 71.8789C184.536 71.8789 184.943 71.798 185.322 71.6408C185.702 71.4835 186.047 71.2531 186.337 70.9625L205.087 52.2125C205.379 51.9222 205.609 51.5774 205.767 51.1977C205.924 50.8181 206.006 50.411 206.006 50C206.006 49.589 205.924 49.1819 205.767 48.8023C205.609 48.4226 205.379 48.0778 205.087 47.7875L186.337 29.0375C186.047 28.7469 185.702 28.5165 185.322 28.3592C184.943 28.202 184.536 28.121 184.125 28.121C183.714 28.121 183.307 28.202 182.928 28.3592C182.548 28.5165 182.203 28.7469 181.913 29.0375C181.622 29.328 181.391 29.673 181.234 30.0526C181.077 30.4322 180.996 30.8391 180.996 31.25C180.996 31.6609 181.077 32.0678 181.234 32.4474C181.391 32.827 181.622 33.172 181.913 33.4625L195.331 46.875H159.125Z" fill="#E5CEC5"/>
</svg>
