<svg width="29" height="22" viewBox="0 0 29 22" fill="none" xmlns="http://www.w3.org/2000/svg">
<path fill-rule="evenodd" clip-rule="evenodd" d="M0.0505371 20.5023C0.0505371 20.1533 0.189174 19.8186 0.43595 19.5718C0.682726 19.325 1.01743 19.1864 1.36642 19.1864H27.684C28.033 19.1864 28.3677 19.325 28.6145 19.5718C28.8613 19.8186 28.9999 20.1533 28.9999 20.5023C28.9999 20.8513 28.8613 21.186 28.6145 21.4328C28.3677 21.6795 28.033 21.8182 27.684 21.8182H1.36642C1.01743 21.8182 0.682726 21.6795 0.43595 21.4328C0.189174 21.186 0.0505371 20.8513 0.0505371 20.5023ZM0.0505371 10.9091C0.0505371 10.5601 0.189174 10.2254 0.43595 9.97861C0.682726 9.73184 1.01743 9.5932 1.36642 9.5932H27.684C28.033 9.5932 28.3677 9.73184 28.6145 9.97861C28.8613 10.2254 28.9999 10.5601 28.9999 10.9091C28.9999 11.2581 28.8613 11.5928 28.6145 11.8396C28.3677 12.0863 28.033 12.225 27.684 12.225H1.36642C1.01743 12.225 0.682726 12.0863 0.43595 11.8396C0.189174 11.5928 0.0505371 11.2581 0.0505371 10.9091ZM0.0505371 1.31588C0.0505371 0.966888 0.189174 0.632189 0.43595 0.385413C0.682726 0.138637 1.01743 0 1.36642 0H27.684C28.033 0 28.3677 0.138637 28.6145 0.385413C28.8613 0.632189 28.9999 0.966888 28.9999 1.31588C28.9999 1.66488 28.8613 1.99957 28.6145 2.24635C28.3677 2.49313 28.033 2.63176 27.684 2.63176H1.36642C1.01743 2.63176 0.682726 2.49313 0.43595 2.24635C0.189174 1.99957 0.0505371 1.66488 0.0505371 1.31588Z" fill="#E5CEC5"/>
</svg>
