<svg width="120" height="120" viewBox="0 0 120 120" fill="none" xmlns="http://www.w3.org/2000/svg">
<path d="M65.8837 77.4487C61.7959 70.6572 45.4914 71.2063 32.2275 76.5237C67.6885 60.2533 78.3963 48.7112 96.4868 15C95.85 36.7693 82.5751 65.0135 65.8837 77.4487Z" fill="#E6D7D1"/>
<path d="M94.3009 42.6923C89.3808 59.8909 62.6464 79.153 50.9575 82.6487C93.9567 73.8534 100.375 73.006 105.587 55.7412C101.678 48.9004 101.793 40.7378 94.3009 42.6923Z" fill="#242424"/>
<path d="M90.7578 32.2648C101.392 52.3104 73.3458 75.5493 49.3362 86.8634C73.1936 76.3391 85.1816 81.1341 87.6848 83.2201C102.843 77.2404 121.338 54.2829 90.7578 32.2648Z" fill="#D9D9D9"/>
<path d="M63.5 101C72.9688 109.163 104.5 97 120 82.5C105.5 90.851 86.6521 98.4893 70 90C62.0038 85.9235 49.1087 76.1465 1 105.5C37.5 88.0685 50.74 90 63.5 101Z" fill="#D9D9D9"/>
</svg>
