<svg width="195" height="48" viewBox="0 0 195 48" fill="none" xmlns="http://www.w3.org/2000/svg">
<path d="M8.75077 19.2517C8.28407 19.2517 7.8757 19.1739 7.52567 19.0183C6.47557 18.7072 5.40603 18.046 4.31705 17.0348C3.22806 15.9847 2.2752 14.7402 1.45846 13.3012C0.680616 11.8233 0.213908 10.3648 0.0583385 8.92579C0.0194462 8.77022 0 8.57576 0 8.3424C0 8.10905 0 7.8368 0 7.52566C0 2.50855 3.15028 0 9.45084 0C12.5622 0 15.9847 0.486154 19.7184 1.45846C23.4521 2.43077 27.7886 3.73366 32.7279 5.36714C33.9725 5.79496 35.0225 6.14499 35.8782 6.41723C36.7338 6.68948 37.3561 6.88394 37.745 7.00062C39.0673 7.38954 40.2925 7.584 41.4203 7.584C42.6649 7.584 43.5789 7.35065 44.1622 6.88394C44.7456 6.37834 45.0179 5.83385 44.979 5.25046V5.01711C44.979 4.5504 45.1151 4.31705 45.3874 4.31705C45.6985 4.31705 46.0291 4.5504 46.3791 5.01711C46.5347 5.21157 46.6125 5.48382 46.6125 5.83385C46.6125 6.65059 46.1652 7.40899 45.2707 8.10905C44.3762 8.80911 43.0149 9.15914 41.187 9.15914C39.5146 9.15914 37.6672 8.88689 35.6448 8.3424C33.6224 7.79791 30.9972 7.00062 27.7691 5.95052C24.1521 4.78375 21.1769 3.90868 18.8433 3.32529C16.5098 2.70301 14.3318 2.39188 12.3094 2.39188C7.56456 2.39188 4.5504 4.47262 3.26696 8.6341C3.15028 9.02302 3.09194 9.47028 3.09194 9.97588C3.09194 10.9482 3.34474 12.0566 3.85034 13.3012C4.39483 14.5068 5.056 15.5958 5.83385 16.5681C6.6117 17.5015 7.3701 18.046 8.10905 18.2016H8.51742C9.45084 18.2016 9.91754 18.3766 9.91754 18.7267C9.91754 18.8433 9.82031 18.96 9.62585 19.0767C9.3925 19.1934 9.10081 19.2517 8.75077 19.2517ZM12.4844 40.2536C10.6565 39.8646 9.74253 38.8729 9.74253 37.2783C9.74253 36.5004 9.93699 35.4698 10.3259 34.1864C10.7148 33.0585 11.0649 32.0667 11.376 31.2111C11.726 30.3166 12.0566 29.5582 12.3678 28.9359C12.6789 28.3136 13.0484 27.6136 13.4762 26.8357C13.9429 26.0579 14.4874 25.1828 15.1097 24.2105L12.1927 25.9023C11.6871 26.1745 11.2399 26.4079 10.851 26.6024C10.462 26.7968 10.112 26.9329 9.80087 27.0107C9.76198 27.0107 9.72308 27.0302 9.68419 27.0691C9.68419 27.0691 9.66474 27.0691 9.62585 27.0691C9.43139 27.0691 9.33416 26.9135 9.33416 26.6024C9.33416 26.1745 9.47028 25.6495 9.74253 25.0272C10.0537 24.4049 10.3454 23.9966 10.6176 23.8021C11.1232 23.5299 11.5899 23.2965 12.0177 23.102C12.4455 22.9076 12.815 22.7715 13.1262 22.6937C13.2428 22.6548 13.379 22.6159 13.5345 22.577C13.6901 22.4992 13.8651 22.4409 14.0596 22.402C14.4096 22.2853 14.8763 22.1103 15.4597 21.8769C16.0431 21.6047 16.5098 21.4491 16.8598 21.4102C16.8598 21.4102 16.9959 21.2158 17.2682 20.8268C17.5404 20.399 17.9488 19.7767 18.4933 18.96C20.1268 16.432 21.138 14.818 21.5269 14.1179C22.4603 12.4455 23.2965 11.1426 24.0355 10.2092C24.4633 9.62585 25.0661 9.33416 25.844 9.33416C26.3884 9.33416 26.894 9.47028 27.3608 9.74253C27.8275 10.0148 28.0608 10.3065 28.0608 10.6176C28.0608 10.8121 27.983 10.9676 27.8275 11.0843C26.7385 12.0177 25.4356 13.3401 23.9188 15.0513C22.4409 16.7237 20.9824 18.5127 19.5434 20.4185C22.6548 19.6017 25.5717 19.1934 28.2942 19.1934C28.9164 19.1934 29.3637 19.2517 29.636 19.3684C29.9471 19.5628 30.1027 19.7379 30.1027 19.8934C30.1027 20.0101 29.986 20.1657 29.7526 20.3601C29.636 20.4379 29.4804 20.4963 29.2859 20.5351C29.1304 20.574 28.9553 20.6129 28.7609 20.6518C27.283 20.7296 25.9801 20.8657 24.8522 21.0602C23.7243 21.2547 22.6159 21.5269 21.5269 21.8769C20.4768 22.1881 19.2906 22.6159 17.9683 23.1604C17.1515 24.3272 16.4709 25.3189 15.9264 26.1356C15.3819 26.9135 14.9347 27.6524 14.5846 28.3525C14.2346 29.0137 13.904 29.7526 13.5929 30.5694C13.2817 31.3472 12.9511 32.3195 12.6011 33.4863C12.2122 34.6531 12.0177 35.5865 12.0177 36.2865C12.0177 37.3755 12.5039 38.0367 13.4762 38.2701C13.8262 38.3089 14.0012 38.5034 14.0012 38.8534C14.0012 39.2035 13.8262 39.534 13.4762 39.8452C13.1651 40.1952 12.8345 40.3313 12.4844 40.2536Z" fill="#E5CEC5"/>
<path d="M24.2451 36.0532C23.7395 36.0532 23.4867 35.6059 23.4867 34.7114C23.4867 33.9724 23.6617 33.2529 24.0118 32.5529C24.9063 30.8416 25.723 29.1498 26.462 27.4774C26.9676 26.4662 27.4343 25.4939 27.8621 24.5605C28.3288 23.6271 28.7566 22.7715 29.1455 21.9936C29.3789 21.7603 29.6123 21.6436 29.8456 21.6436C30.3512 21.6436 30.5068 21.8769 30.3123 22.3436C30.2345 22.6159 30.1179 22.9465 29.9623 23.3354C29.8456 23.6854 29.69 24.1132 29.4956 24.6188C28.8733 26.2523 28.5038 27.3996 28.3871 28.0608C29.4761 27.0885 30.5846 26.194 31.7124 25.3772C32.8792 24.5216 33.9682 23.8215 34.9794 23.2771C35.9906 22.7326 36.8462 22.4603 37.5463 22.4603C38.1686 22.4603 38.4797 22.7131 38.4797 23.2187C38.4797 23.6465 38.2852 24.1132 37.8963 24.6188C37.5074 25.0855 37.1185 25.3189 36.7295 25.3189C36.5351 25.3189 36.3795 25.2606 36.2628 25.1439C36.1462 25.105 35.9128 25.0856 35.5628 25.0856C34.3182 25.0856 33.0153 25.6884 31.6541 26.894C30.2151 28.0997 28.9122 29.5582 27.7454 31.2694C26.5787 32.9418 25.723 34.4003 25.1785 35.6448C24.9063 35.9171 24.5951 36.0532 24.2451 36.0532Z" fill="#E5CEC5"/>
<path d="M43.804 36.4032C43.7262 36.4032 43.6484 36.3838 43.5707 36.3449C43.4929 36.3449 43.4151 36.3254 43.3373 36.2865C42.7928 36.0143 42.4428 35.6254 42.2872 35.1198C42.1316 34.6142 42.0927 33.9724 42.1705 33.1946C42.2483 32.8835 42.3261 32.339 42.4039 31.5611C42.5206 30.7833 42.6567 30.161 42.8122 29.6943L39.837 32.5529L38.2035 34.128C37.0756 35.2559 36.1422 35.8198 35.4033 35.8198C35.0921 35.8198 34.8393 35.7032 34.6449 35.4698C34.2948 35.042 34.1198 34.5169 34.1198 33.8947C34.1198 33.0779 34.3337 32.2028 34.7615 31.2694C35.1894 30.336 35.695 29.4415 36.2783 28.5859C36.8617 27.6913 37.3868 26.9524 37.8535 26.369C39.0202 24.93 40.1481 23.8021 41.2371 22.9854C42.365 22.1686 43.5318 21.7603 44.7374 21.7603C45.3986 21.7603 46.0403 21.8769 46.6626 22.1103C47.3238 22.3436 47.9266 22.7326 48.4711 23.2771L48.5294 23.3354C48.5294 23.4521 48.4322 23.5688 48.2377 23.6854C48.1599 23.7632 48.0822 23.8215 48.0044 23.8604C47.9655 23.8993 47.9266 23.9382 47.8877 23.9771C47.421 24.4438 46.8959 25.2217 46.3126 26.3107C45.7292 27.3996 45.2236 28.547 44.7958 29.7526C44.3679 30.9194 44.154 31.9306 44.154 32.7862C44.154 33.5641 44.3485 34.0891 44.7374 34.3614C44.9319 34.478 45.1458 34.5364 45.3791 34.5364C45.8847 34.5364 46.5848 34.2252 47.4793 33.603C47.5182 33.5641 47.596 33.5057 47.7127 33.428C47.8682 33.3113 48.0822 33.1557 48.3544 32.9612C48.6655 32.7279 48.9183 32.6112 49.1128 32.6112C49.3073 32.6112 49.4045 32.689 49.4045 32.8446C49.4045 33.0779 49.2489 33.3502 48.9378 33.6613C48.7044 33.8558 48.4322 34.0697 48.1211 34.303C47.8488 34.5364 47.5182 34.7697 47.1293 35.0031C46.5459 35.4309 45.9431 35.7615 45.3208 35.9948C44.6985 36.2671 44.1929 36.4032 43.804 36.4032ZM37.2118 32.6696C38.0285 32.6696 39.5453 31.4639 41.7622 29.0526C42.3455 28.3914 42.8706 27.7691 43.3373 27.1857C43.804 26.5635 44.2318 25.9606 44.6207 25.3772C45.3208 24.2494 45.5542 23.4715 45.3208 23.0437C45.2041 22.8103 44.9708 22.6937 44.6207 22.6937C44.1929 22.6937 43.6095 22.927 42.8706 23.3937C42.1316 23.8215 41.3732 24.3855 40.5954 25.0856C39.8564 25.7856 39.1758 26.4857 38.5535 27.1857C38.1257 27.7302 37.6979 28.4886 37.2701 29.4609C36.8423 30.4332 36.6284 31.2305 36.6284 31.8528C36.6284 32.3973 36.8228 32.6696 37.2118 32.6696Z" fill="#E5CEC5"/>
<path d="M51.4855 35.9948C50.5521 35.9948 49.8326 35.7032 49.327 35.1198C48.8603 34.5753 48.627 33.8558 48.627 32.9612C48.627 31.3667 49.2103 29.811 50.3771 28.2942C51.3105 27.0885 52.3412 25.9995 53.4691 25.0272C54.6358 24.016 55.7637 23.2187 56.8527 22.6353C57.9806 22.0131 58.9334 21.7019 59.7113 21.7019C60.4502 21.7019 60.9364 22.0131 61.1697 22.6353C61.3253 22.9465 61.4031 23.3159 61.4031 23.7438C61.4031 24.5216 61.1114 24.9105 60.528 24.9105C60.2558 24.9105 60.003 24.7939 59.7696 24.5605C59.5751 24.2883 59.4779 23.9188 59.4779 23.4521C59.0501 23.2576 58.4667 23.3548 57.7278 23.7438C57.0277 24.0938 56.2887 24.6188 55.5109 25.3189C54.7331 25.9801 53.9941 26.6996 53.294 27.4774C52.594 28.2164 52.0495 28.8581 51.6606 29.4026C50.9605 30.3749 50.6105 31.4444 50.6105 32.6112C50.6105 33.1557 50.7466 33.603 51.0188 33.953C51.2911 34.303 51.6994 34.4781 52.2439 34.4781C52.7495 34.4781 53.3524 34.3225 54.0524 34.0113C54.558 33.7391 55.0247 33.4863 55.4526 33.2529C55.9193 33.0196 56.3471 32.8057 56.736 32.6112C59.1473 31.25 60.5086 30.5694 60.8197 30.5694C60.9364 30.5694 60.9947 30.6277 60.9947 30.7444C60.9947 30.8611 60.8975 31.0166 60.703 31.2111C60.3141 31.5611 59.6918 32.0473 58.8362 32.6696C57.9806 33.2918 57.0666 33.8752 56.0943 34.4197C55.122 34.9642 54.2275 35.3726 53.4107 35.6448C52.6718 35.8782 52.03 35.9948 51.4855 35.9948Z" fill="#E5CEC5"/>
<path d="M61.7208 40.2536C61.5263 40.2536 61.4291 40.0785 61.4291 39.7285C61.4291 39.6507 61.4291 39.5341 61.4291 39.3785C61.468 39.2618 61.5068 39.1257 61.5457 38.9701L64.0543 32.6696L67.0296 25.3189C66.5629 25.28 65.8822 25.2995 64.9877 25.3772C64.0932 25.4161 63.3348 25.4939 62.7125 25.6106C62.4792 25.6495 62.2847 25.6884 62.1291 25.7273C62.0125 25.7273 61.9152 25.7273 61.8374 25.7273C61.5263 25.7273 61.3124 25.5912 61.1957 25.3189C61.2346 25.0856 61.4485 24.8716 61.8374 24.6772C62.0319 24.5994 62.2652 24.5411 62.5375 24.5022C62.8097 24.4244 63.1403 24.3466 63.5292 24.2688C63.9571 24.191 64.3265 24.1327 64.6377 24.0938C64.9877 24.0549 65.2405 24.016 65.3961 23.9771C65.5905 23.9382 65.785 23.8993 65.9795 23.8604C66.1739 23.8215 66.4073 23.7827 66.6795 23.7438C66.9129 23.7049 67.1657 23.666 67.4379 23.6271C67.7102 23.5882 68.0019 23.5299 68.313 23.4521C68.6241 23.0243 69.0909 22.2659 69.7131 21.1769C70.3354 20.0879 71.1327 18.6489 72.105 16.8598C72.8829 15.4208 73.5051 14.2929 73.9718 13.4762C74.4774 12.6206 74.8275 12.0566 75.0219 11.7844C75.372 11.3177 75.7803 11.0843 76.247 11.0843C76.4804 11.0843 76.5971 11.1815 76.5971 11.376C76.5971 11.4149 76.4998 11.6677 76.3054 12.1344C76.072 12.5233 75.6831 13.2428 75.1386 14.2929C74.5941 15.343 74.0107 16.4903 73.3885 17.7349C72.7662 18.9795 72.2022 20.1462 71.6966 21.2352C71.191 22.3242 70.841 23.1215 70.6465 23.6271C70.841 23.5882 71.0549 23.5687 71.2883 23.5687C71.5605 23.5687 71.8911 23.5687 72.28 23.5687C72.7078 23.5687 73.0968 23.5882 73.4468 23.6271C73.8357 23.6271 74.1663 23.6465 74.4385 23.6854C74.983 23.8021 75.2553 23.9577 75.2553 24.1521C75.2553 24.2299 75.0803 24.366 74.7302 24.5605C74.5358 24.6383 74.1663 24.7161 73.6218 24.7939C73.0773 24.8716 72.3578 24.9494 71.4633 25.0272C71.2299 25.0272 70.9771 25.0467 70.7049 25.0856C70.4326 25.0856 70.1409 25.105 69.8298 25.1439C68.663 27.0496 67.0685 30.2193 65.0461 34.6531C64.3071 36.131 63.7432 37.2783 63.3542 38.095C62.9653 38.9118 62.732 39.3979 62.6542 39.5535C62.3041 40.0202 61.993 40.2536 61.7208 40.2536Z" fill="#E5CEC5"/>
<path d="M80.9811 36.4032C80.9033 36.4032 80.8255 36.3838 80.7478 36.3449C80.67 36.3449 80.5922 36.3254 80.5144 36.2865C79.9699 36.0143 79.6199 35.6254 79.4643 35.1198C79.3088 34.6142 79.2699 33.9724 79.3476 33.1946C79.4254 32.8835 79.5032 32.339 79.581 31.5611C79.6977 30.7833 79.8338 30.161 79.9894 29.6943L77.0141 32.5529L75.3806 34.128C74.2527 35.2559 73.3193 35.8198 72.5804 35.8198C72.2692 35.8198 72.0164 35.7032 71.822 35.4698C71.4719 35.042 71.2969 34.5169 71.2969 33.8947C71.2969 33.0779 71.5108 32.2028 71.9387 31.2694C72.3665 30.336 72.8721 29.4415 73.4555 28.5859C74.0388 27.6913 74.5639 26.9524 75.0306 26.369C76.1974 24.93 77.3252 23.8021 78.4142 22.9854C79.5421 22.1686 80.7089 21.7603 81.9145 21.7603C82.5757 21.7603 83.2174 21.8769 83.8397 22.1103C84.5009 22.3436 85.1037 22.7326 85.6482 23.2771L85.7065 23.3354C85.7065 23.4521 85.6093 23.5688 85.4148 23.6854C85.3371 23.7632 85.2593 23.8215 85.1815 23.8604C85.1426 23.8993 85.1037 23.9382 85.0648 23.9771C84.5981 24.4438 84.0731 25.2217 83.4897 26.3107C82.9063 27.3996 82.4007 28.547 81.9729 29.7526C81.5451 30.9194 81.3312 31.9306 81.3312 32.7862C81.3312 33.5641 81.5256 34.0891 81.9145 34.3614C82.109 34.478 82.3229 34.5364 82.5563 34.5364C83.0619 34.5364 83.7619 34.2252 84.6564 33.603C84.6953 33.5641 84.7731 33.5057 84.8898 33.428C85.0454 33.3113 85.2593 33.1557 85.5315 32.9612C85.8427 32.7279 86.0955 32.6112 86.2899 32.6112C86.4844 32.6112 86.5816 32.689 86.5816 32.8446C86.5816 33.0779 86.426 33.3502 86.1149 33.6613C85.8816 33.8558 85.6093 34.0697 85.2982 34.303C85.0259 34.5364 84.6953 34.7697 84.3064 35.0031C83.723 35.4309 83.1202 35.7615 82.4979 35.9948C81.8756 36.2671 81.37 36.4032 80.9811 36.4032ZM74.3889 32.6696C75.2056 32.6696 76.7224 31.4639 78.9393 29.0526C79.5227 28.3914 80.0477 27.7691 80.5144 27.1857C80.9811 26.5635 81.4089 25.9606 81.7979 25.3772C82.4979 24.2494 82.7313 23.4715 82.4979 23.0437C82.3812 22.8103 82.1479 22.6937 81.7979 22.6937C81.37 22.6937 80.7867 22.927 80.0477 23.3937C79.3088 23.8215 78.5504 24.3855 77.7725 25.0856C77.0336 25.7856 76.3529 26.4857 75.7307 27.1857C75.3028 27.7302 74.875 28.4886 74.4472 29.4609C74.0194 30.4332 73.8055 31.2305 73.8055 31.8528C73.8055 32.3973 73.9999 32.6696 74.3889 32.6696Z" fill="#E5CEC5"/>
<path d="M87.8063 38.6784C87.3785 38.6784 87.009 38.5423 86.6978 38.2701C86.4256 37.9978 86.3089 37.6672 86.3478 37.2783C86.4256 35.6837 86.7173 34.1475 87.2229 32.6696C87.7674 31.1916 88.5452 29.422 89.5564 27.3608C89.6731 27.0885 89.7703 26.8552 89.8481 26.6607C89.9648 26.4273 90.062 26.2329 90.1398 26.0773C90.9954 24.2494 91.8705 22.4992 92.765 20.8268C93.6596 19.1545 94.5541 17.521 95.4486 15.9264L96.2654 14.4679C97.1988 12.7956 98.0155 11.4538 98.7156 10.4426C99.4156 9.3925 100.116 8.6341 100.816 8.16739C101.71 7.6229 102.255 7.35065 102.449 7.35065C102.76 7.35065 103.072 7.6229 103.383 8.16739C103.577 8.55631 103.188 9.50917 102.216 11.026C101.71 11.8038 101.069 12.7761 100.291 13.9429C99.5517 15.1097 98.6572 16.432 97.6071 17.9099C97.4127 18.1822 97.0821 18.6683 96.6154 19.3684C96.1876 20.0295 95.6042 20.9046 94.8652 21.9936C94.1263 23.0826 93.4845 24.0743 92.9401 24.9689C92.3956 25.8245 91.9483 26.5829 91.5983 27.2441C90.8982 28.5275 90.237 29.9082 89.6148 31.3861C88.9925 32.8251 88.6813 33.953 88.6813 34.7697C88.6813 35.5087 88.973 35.8782 89.5564 35.8782C90.4898 35.8782 91.9872 35.0809 94.0485 33.4863C94.2818 33.5252 94.3985 33.6419 94.3985 33.8363C94.3985 33.9919 94.2041 34.2641 93.8151 34.6531C93.4651 35.0031 93.0178 35.3726 92.4734 35.7615C91.9678 36.1893 91.3649 36.6755 90.6649 37.22L89.7314 37.92C89.1092 38.4256 88.4674 38.6784 87.8063 38.6784Z" fill="#E5CEC5"/>
<path d="M101.416 38.5617C100.444 38.5617 99.7052 38.3478 99.1996 37.92C98.7329 37.4922 98.4995 36.9088 98.4995 36.1699C98.4995 35.4698 98.7134 34.7114 99.1413 33.8947C99.5691 33.0779 100.172 32.3195 100.95 31.6195C101.183 31.425 101.378 31.3083 101.533 31.2694C101.65 31.2694 101.747 31.3083 101.825 31.3861C101.864 31.425 101.883 31.5028 101.883 31.6195C101.883 31.8917 101.708 32.2028 101.358 32.5529C100.269 33.6808 99.7246 34.6336 99.7246 35.4115C99.7246 35.8393 99.9191 36.2282 100.308 36.5782C100.697 36.9283 101.144 37.0838 101.65 37.0449C103.594 36.9672 105.597 36.5393 107.659 35.7615C109.72 34.9836 111.645 33.9141 113.434 32.5529C115.223 31.1528 116.701 29.5582 117.868 27.7691C118.724 26.5246 119.151 25.4356 119.151 24.5022C119.151 23.2965 118.374 22.6937 116.818 22.6937C116.546 22.6937 116.234 22.7326 115.884 22.8103C115.534 22.8492 115.145 22.9076 114.718 22.9854L111.801 23.6271C109.428 24.1327 107.328 24.5799 105.5 24.9689C103.672 25.3189 102.039 25.4939 100.6 25.4939C98.9274 25.4939 97.6245 25.2411 96.691 24.7355C95.7965 24.191 95.3493 23.2771 95.3493 21.9936C95.3493 21.4102 95.4659 20.7102 95.6993 19.8934C96.4771 17.3265 98.5579 14.6041 101.942 11.726C104.236 9.78142 106.803 8.05071 109.642 6.53391C112.481 4.97822 115.34 3.75311 118.218 2.85858C121.135 1.92517 123.857 1.45846 126.385 1.45846C128.33 1.45846 129.866 1.88628 130.994 2.74191C132.161 3.59754 132.744 4.76431 132.744 6.24222C132.744 7.60345 132.258 9.06191 131.286 10.6176C131.014 11.0065 130.78 11.201 130.586 11.201C130.508 11.201 130.43 11.1426 130.352 11.026C130.275 10.8704 130.236 10.7148 130.236 10.5593C130.236 10.5204 130.236 10.462 130.236 10.3842C130.275 10.2676 130.313 10.1315 130.352 9.97588C130.663 9.04247 130.819 8.14794 130.819 7.29231C130.819 5.96997 130.352 4.97822 129.419 4.31705C128.524 3.65588 127.222 3.40308 125.51 3.55865C122.516 3.86979 119.093 4.82265 115.243 6.41723C112.637 7.50622 110.167 8.78966 107.834 10.2676C105.539 11.7455 103.556 13.3206 101.883 14.993C100.25 16.6265 99.1218 18.2794 98.4995 19.9518C98.344 20.2629 98.2662 20.6324 98.2662 21.0602C98.2662 22.6159 99.8024 23.3937 102.875 23.3937C104.353 23.3937 105.967 23.2382 107.717 22.927C109.506 22.6159 111.567 22.227 113.901 21.7603L115.943 21.3519C116.643 21.2352 117.323 21.1769 117.985 21.1769C119.229 21.1769 120.221 21.4297 120.96 21.9353C121.699 22.4409 122.068 23.1409 122.068 24.0355C122.068 24.8522 121.718 25.8245 121.018 26.9524C120.357 28.0025 119.579 29.0137 118.685 29.986C117.79 30.9194 116.798 31.8334 115.709 32.7279C113.493 34.5169 111.12 35.9365 108.592 36.9866C106.064 38.0367 103.672 38.5617 101.416 38.5617Z" fill="#E5CEC5"/>
<path d="M125.426 35.4698C124.61 35.4698 123.89 35.2559 123.268 34.8281C122.257 34.0502 121.751 32.8835 121.751 31.3278C121.751 29.7721 122.296 28.1192 123.385 26.369C124.474 24.6188 126.126 23.0048 128.343 21.5269C128.732 21.2547 129.257 21.1185 129.918 21.1185C130.774 21.1185 131.532 21.3519 132.194 21.8186C132.894 22.2853 133.166 22.8881 133.01 23.6271C132.738 24.8328 132.135 25.9023 131.202 26.8357C130.307 27.7691 129.238 28.6053 127.993 29.3443C126.788 30.0443 125.543 30.7249 124.26 31.3861C124.221 31.5028 124.182 31.6195 124.143 31.7361C124.143 31.8528 124.143 31.9695 124.143 32.0862C124.143 32.6307 124.318 33.1168 124.668 33.5446C125.057 33.9336 125.582 34.128 126.243 34.128C126.749 34.128 127.177 34.0502 127.527 33.8947C128.149 33.6613 128.654 33.4474 129.043 33.2529C129.471 33.0585 129.957 32.7668 130.502 32.3779C131.046 31.9889 131.785 31.4056 132.719 30.6277C133.147 30.3166 133.399 30.161 133.477 30.161C133.71 30.161 133.788 30.336 133.71 30.686C133.322 31.3083 132.641 31.9889 131.669 32.7279C130.735 33.4668 129.685 34.1086 128.518 34.6531C127.39 35.1976 126.36 35.4698 125.426 35.4698ZM124.61 29.811C124.921 29.811 125.563 29.4998 126.535 28.8776C127.507 28.2553 128.421 27.5747 129.277 26.8357C130.755 25.4745 131.494 24.4244 131.494 23.6854C131.494 23.491 131.435 23.316 131.319 23.1604C131.202 22.9659 131.027 22.8687 130.794 22.8687C130.055 22.8687 128.81 23.7438 127.06 25.4939C125.854 26.6607 125.037 28.0997 124.61 29.811Z" fill="#E5CEC5"/>
<path d="M141.717 36.4032C141.639 36.4032 141.561 36.3838 141.484 36.3449C141.406 36.3449 141.328 36.3254 141.25 36.2865C140.706 36.0143 140.356 35.6254 140.2 35.1198C140.045 34.6142 140.006 33.9724 140.083 33.1946C140.161 32.8835 140.239 32.339 140.317 31.5611C140.434 30.7833 140.57 30.161 140.725 29.6943L137.75 32.5529L136.116 34.128C134.989 35.2559 134.055 35.8198 133.316 35.8198C133.005 35.8198 132.752 35.7032 132.558 35.4698C132.208 35.042 132.033 34.5169 132.033 33.8947C132.033 33.0779 132.247 32.2028 132.674 31.2694C133.102 30.336 133.608 29.4415 134.191 28.5859C134.775 27.6913 135.3 26.9524 135.766 26.369C136.933 24.93 138.061 23.8021 139.15 22.9854C140.278 22.1686 141.445 21.7603 142.65 21.7603C143.312 21.7603 143.953 21.8769 144.576 22.1103C145.237 22.3436 145.84 22.7326 146.384 23.2771L146.442 23.3354C146.442 23.4521 146.345 23.5688 146.151 23.6854C146.073 23.7632 145.995 23.8215 145.917 23.8604C145.878 23.8993 145.84 23.9382 145.801 23.9771C145.334 24.4438 144.809 25.2217 144.226 26.3107C143.642 27.3996 143.137 28.547 142.709 29.7526C142.281 30.9194 142.067 31.9306 142.067 32.7862C142.067 33.5641 142.261 34.0891 142.65 34.3614C142.845 34.478 143.059 34.5364 143.292 34.5364C143.798 34.5364 144.498 34.2252 145.392 33.603C145.431 33.5641 145.509 33.5057 145.626 33.428C145.781 33.3113 145.995 33.1557 146.267 32.9612C146.578 32.7279 146.831 32.6112 147.026 32.6112C147.22 32.6112 147.317 32.689 147.317 32.8446C147.317 33.0779 147.162 33.3502 146.851 33.6613C146.617 33.8558 146.345 34.0697 146.034 34.303C145.762 34.5364 145.431 34.7697 145.042 35.0031C144.459 35.4309 143.856 35.7615 143.234 35.9948C142.611 36.2671 142.106 36.4032 141.717 36.4032ZM135.125 32.6696C135.941 32.6696 137.458 31.4639 139.675 29.0526C140.258 28.3914 140.784 27.7691 141.25 27.1857C141.717 26.5635 142.145 25.9606 142.534 25.3772C143.234 24.2494 143.467 23.4715 143.234 23.0437C143.117 22.8103 142.884 22.6937 142.534 22.6937C142.106 22.6937 141.522 22.927 140.784 23.3937C140.045 23.8215 139.286 24.3855 138.508 25.0856C137.769 25.7856 137.089 26.4857 136.466 27.1857C136.039 27.7302 135.611 28.4886 135.183 29.4609C134.755 30.4332 134.541 31.2305 134.541 31.8528C134.541 32.3973 134.736 32.6696 135.125 32.6696Z" fill="#E5CEC5"/>
<path d="M169.314 30.4329C167.451 27.3376 160.019 27.5878 153.974 30.0113C170.136 22.5958 175.017 17.3352 183.262 1.97071C182.971 11.8925 176.921 24.7654 169.314 30.4329Z" fill="#E5CEC5"/>
<path d="M182.265 14.5921C180.023 22.4306 167.838 31.2097 162.511 32.8029C182.108 28.7943 185.034 28.4081 187.409 20.5393C185.628 17.4215 185.68 13.7012 182.265 14.5921Z" fill="#242424"/>
<path d="M180.65 9.83949C185.497 18.9756 172.715 29.5672 161.772 34.7238C172.645 29.9272 178.109 32.1126 179.25 33.0633C186.158 30.338 194.588 19.8746 180.65 9.83949Z" fill="#E5CEC5"/>
<path d="M172.582 41.1545C176.898 44.8749 192.226 37.8806 194.961 33.5646C189.474 37.479 178.981 40.4105 171.392 36.5413C167.747 34.6834 144.805 34.6215 122.878 48C142.819 37.4342 164.895 34.5278 172.582 41.1545Z" fill="#E5CEC5"/>
</svg>
