<svg width="292" height="153" viewBox="0 0 292 153" fill="none" xmlns="http://www.w3.org/2000/svg">
<path d="M191.943 34.5681C224.218 37.5844 262.916 69.3279 237.55 89.74C241.259 84.6482 232.214 80.6397 215.99 99.0366L174.565 121.97C209.608 85.4486 205.023 61.022 191.943 34.5681Z" fill="#536883"/>
<path d="M152.011 124.505C174.065 92.0548 192.684 46.2885 168.739 0.391235C201.96 20.1078 224.77 63.1501 219.477 90.5152C220.807 82.8497 174.245 105.208 152.011 124.505Z" fill="#536883"/>
<path d="M202.501 92.0168C227.043 63.3122 190.915 33.2116 168.601 0.295898C234.269 19.6948 256.947 58.2359 234.269 92.0168C235.6 84.3513 228.75 70.7461 202.501 92.0168Z" fill="#536883"/>
<path d="M291.621 67.7216C256.927 72.2132 226.4 72.6295 145.342 136.313C211.031 108.315 207.092 102.365 222.178 118.181C236.001 114.778 244.466 111.591 251.803 107.976C276.153 95.9773 291.621 77.8587 291.621 67.7216Z" fill="#536883"/>
<path d="M276.103 74.5698C250.603 79.009 218.116 81.7162 170.74 121.241C193.575 105.617 211.727 105.536 229.511 112.438C236.045 110.55 239.991 109.73 247.541 105.664C257.705 98.2594 274.386 82.1428 276.103 74.5698Z" fill="#AFD2CE"/>
<path d="M169.77 108.925C196.237 80.8376 195.029 31.3894 175.784 5.92175C216.877 27.0008 226.676 59.8934 221.382 87.2585C222.713 79.593 201.098 78.4069 169.77 108.925Z" fill="#AFD2CE"/>
<path d="M248.022 78.7844C273.142 64.5382 272.186 29.168 200.628 19.6854C228.583 35.9429 219.361 70.3071 193.952 99.6367C230.945 83.2965 239.165 77.6228 248.022 78.7844Z" fill="#536883"/>
<path fill-rule="evenodd" clip-rule="evenodd" d="M247.262 76.2184C259.116 50.8956 245.968 35.1881 205.935 24.0161C232.701 33.3344 220.162 66.1187 202.024 93.4616C228.799 71.5787 244.873 72.0229 247.262 76.2184Z" fill="#AFD2CE"/>
<path d="M248.632 102.02C274.16 108.185 252.175 134.504 227.457 143.873C202.74 153.243 233.186 132.544 218.865 125.543C208.986 120.714 202.001 123.493 179.341 130.699C156.681 137.904 113.473 150.84 93.2761 152.045C73.6712 153.216 53.3565 150.351 40.6225 144.467C27.8886 138.583 4.50392 122.256 0.370361 99.4443C38.1451 165.654 116.586 138.277 132.926 133.358C151.642 127.725 174.755 116.719 189.065 111.353C205.789 105.081 223.105 95.8551 248.632 102.02Z" fill="#536883"/>
<path d="M167.718 121.861C189.322 107.594 210.871 100.697 221.817 99.0783C232.157 97.5493 256.08 97.719 259.126 111.662C206.631 113.93 162.386 127.466 147.596 133.041C132.805 138.616 162.51 125.301 167.718 121.861Z" fill="#536883"/>
<path d="M119.66 144.932C143.136 140.013 181.455 124.794 193.086 121.156C204.718 117.518 216.031 114.352 225.032 118.253C245.83 127.265 219.622 141.943 234.508 134.767C249.393 127.591 262.83 112.966 246.724 104.823C230.617 96.6804 195.255 108.661 180.979 115.576C166.703 122.49 139.638 136.711 120.49 141.723C101.342 146.735 86.9226 150.893 63.9985 147.454C84.7717 151.546 96.1829 149.851 119.66 144.932Z" fill="#AFD2CE"/>
</svg>
