<?xml version='1.0' encoding='utf-8'?>
<svg xmlns="http://www.w3.org/2000/svg" xmlns:xlink="http://www.w3.org/1999/xlink" enable-background="new 0 0 841.89 841" version="1.1" viewBox="0 0 841.89 841">
<path d="m369.05 588c0.733-14.746 1.434-32.275-0.425-46.849-14.059-2.421-23.902 14.311-37.427 11.753-0.266-1.344-1.254-2.625-1.575-3.876-24.263 1.296 19.223 87.917 27.128 96.998 3.98 4.571 9.394 7.572 13 12.221 6.348 8.185-1.129 10.607 2.199 18.801 3.028 7.456 12.677 7.116 18.045 2.948 5.637-4.376 6.661-12.782 5.003-19.996-3.572-15.548-21.447-26.158-26.055-41.945-3.03-10.382-0.453-18.786 0.107-30.055z"/>
		<path d="m369.05 588c0.184-3.904 0.347-7.811 0.481-11.717l0.154-5.861 0.064-5.862-0.071-5.861-0.226-5.855c-0.121-1.949-0.273-3.896-0.409-5.844-0.197-1.942-0.428-3.88-0.64-5.819l0.183 0.19-1.229-0.152-1.236-0.056c-0.412 2e-3 -0.824 0.027-1.236 0.04-0.411 0.031-0.82 0.088-1.229 0.13l-1.217 0.216-1.202 0.294c-0.794 0.228-1.576 0.494-2.347 0.793-3.081 1.222-5.924 2.98-8.768 4.736-2.846 1.756-5.708 3.567-8.875 4.875-0.791 0.325-1.602 0.611-2.428 0.855-0.828 0.24-1.675 0.425-2.534 0.562-0.431 0.059-0.865 0.095-1.298 0.144l-1.309 0.04-1.311-0.069-1.302-0.175-0.397-0.054-0.168-0.507-0.286-0.862-0.433-0.898-0.479-0.963c-0.146-0.355-0.282-0.732-0.417-1.101l0.779 0.572c-1.288 0.086-2.523 0.453-3.475 1.21-0.961 0.741-1.644 1.819-2.081 3.024-0.873 2.435-0.908 5.216-0.735 7.921 0.432 5.456 1.794 10.87 3.38 16.18 1.618 5.312 3.492 10.556 5.52 15.742 2.028 5.188 4.243 10.305 6.518 15.395 2.283 5.086 4.684 10.121 7.194 15.099 2.526 4.965 5.098 9.918 7.9 14.698 0.701 1.193 1.417 2.375 2.163 3.518 0.374 0.569 0.753 1.133 1.143 1.66 0.195 0.267 0.391 0.519 0.585 0.75 8e-3 0.012 0.085 0.101 0.037 0.049l0.09 0.096 0.18 0.191 0.359 0.383c0.97 1.074 1.891 1.896 2.917 2.813 1.03 0.898 2.097 1.793 3.171 2.698 2.145 1.812 4.361 3.712 6.184 6.077l0.089 0.106 0.117 0.161 0.149 0.216 0.299 0.431c0.199 0.3 0.4 0.55 0.596 0.89 0.382 0.703 0.808 1.391 1.057 2.145 0.589 1.462 0.813 3.181 0.589 4.745-0.207 1.568-0.678 2.935-0.978 4.213-0.304 1.278-0.451 2.502-0.292 3.734 0.116 0.61 0.182 1.232 0.414 1.834l0.273 0.837 0.451 0.948c0.144 0.354 0.321 0.527 0.478 0.778 0.16 0.235 0.301 0.481 0.53 0.697 0.213 0.218 0.399 0.464 0.629 0.664l0.714 0.577c2.019 1.409 4.702 1.888 7.279 1.529 1.294-0.151 2.573-0.511 3.767-1.043 1.202-0.538 2.317-1.175 3.309-2.096 0.959-0.871 1.774-1.864 2.463-3.01 0.658-1.146 1.169-2.385 1.551-3.671 0.736-2.585 0.936-5.339 0.732-8.059-0.092-1.35-0.319-2.746-0.613-4.022-0.378-1.346-0.704-2.728-1.256-3.952-0.445-1.278-1.115-2.497-1.725-3.733-0.317-0.612-0.698-1.193-1.044-1.793-0.351-0.597-0.703-1.193-1.106-1.761-3.067-4.637-6.755-8.865-10.238-13.254-3.5-4.36-6.834-8.965-9-14.167-2.076-5.242-2.711-10.928-2.398-16.515 0.29-5.595 1.23-11.129 1.5-16.724zc-0.242 5.596-1.153 11.14-1.415 16.729l-0.084 2.096c3e-3 0.699 0.039 1.397 0.057 2.096 0.041 0.697 2e-3 1.4 0.109 2.092l0.26 2.077c0.405 2.765 1.16 5.477 2.202 8.054 2.235 5.126 5.583 9.663 9.173 13.934 3.581 4.289 7.378 8.427 10.612 13.058 0.422 0.565 0.797 1.164 1.17 1.765 0.369 0.604 0.771 1.187 1.113 1.808 0.66 1.257 1.374 2.479 1.888 3.838 0.624 1.325 0.97 2.669 1.384 4.007 0.371 1.439 0.622 2.812 0.761 4.251 0.283 2.851 0.154 5.769-0.574 8.594-0.379 1.407-0.905 2.784-1.611 4.085-0.717 1.276-1.66 2.494-2.753 3.523-1.04 1.015-2.361 1.838-3.693 2.465-1.346 0.638-2.783 1.082-4.263 1.295-2.931 0.476-6.156 0.056-8.804-1.689l-0.938-0.72c-0.301-0.252-0.558-0.556-0.837-0.834-0.285-0.266-0.52-0.613-0.757-0.953-0.226-0.335-0.508-0.7-0.633-0.998l-0.475-0.937-0.029-0.058c-0.08-0.173-0.036-0.087-0.06-0.143l-0.048-0.134-0.096-0.269-0.191-0.538c-0.284-0.703-0.408-1.484-0.56-2.241-0.243-1.548-0.084-3.153 0.227-4.598 0.305-1.451 0.734-2.756 0.863-3.973 0.146-1.214-0.026-2.354-0.49-3.48-0.194-0.582-0.533-1.077-0.81-1.606-0.153-0.267-0.393-0.564-0.585-0.846l-0.305-0.427-0.153-0.213-0.038-0.054c-0.048-0.065 0.023 0.029 0 3e-3l-0.082-0.093c-1.632-2.061-3.715-3.814-5.866-5.573-1.078-0.885-2.176-1.765-3.257-2.705-1.068-0.937-2.229-1.993-3.137-2.996l-0.361-0.381-0.181-0.19-0.09-0.096-0.13-0.153c-0.258-0.303-0.491-0.603-0.711-0.899-0.444-0.597-0.85-1.192-1.247-1.791-0.791-1.198-1.53-2.406-2.254-3.623-2.876-4.868-5.524-9.827-8.026-14.863-2.506-5.032-4.899-10.117-7.174-15.256-2.279-5.138-4.392-10.35-6.377-15.613-1.978-5.267-3.795-10.603-5.285-16.048-1.478-5.442-2.74-10.987-3.054-16.718-0.103-2.854-0.033-5.811 1.053-8.653 0.546-1.401 1.435-2.771 2.726-3.712 1.282-0.961 2.871-1.366 4.367-1.427l0.558-0.021 0.222 0.594c0.106 0.287 0.199 0.571 0.308 0.865l0.433 0.924 0.451 1.002 0.342 1.137-0.565-0.561 1.183 0.189 1.196 0.092 1.201-7e-3 1.201-0.104c0.798-0.107 1.593-0.259 2.378-0.466 0.785-0.211 1.562-0.463 2.327-0.756 3.066-1.176 5.94-2.89 8.829-4.576s5.816-3.402 9.004-4.577c0.798-0.287 1.608-0.541 2.43-0.755l1.245-0.272 1.261-0.191c0.424-0.033 0.847-0.08 1.271-0.103 0.425-2e-3 0.851-0.018 1.275-9e-3l1.271 0.085 1.261 0.176 0.167 0.022 0.016 0.168c0.184 1.95 0.386 3.897 0.555 5.847 0.106 1.954 0.23 3.907 0.323 5.86l0.14 5.865 5e-3 5.865-0.094 5.863-0.184 5.861c-0.155 3.905-0.337 7.811-0.541 11.714z"/>
		<path d="m531.25 583.25c7.641-20.03-1.9-48.802-24.246-54.021-12.927-3.018-32.863-1.157-39.686 12.09-7.11 13.804 2.229 37.528 5.712 51.659 3.395 13.771 13.49 27.944 5.723 41.997-4.488 8.12-18.781 23.189-27.726 25.074-6.807 1.435-12.193-4.792-18.274 3.684-5.421 7.555-1.489 12.794 6.251 15.271 22.17 7.093 46.344-13.617 60.948-27.199 7.186-6.683 16.569-15.339 21.048-23.805 3.737-7.063 1.104-7.565 8e-3 -14-0.913-5.349-2.885-14.538 3.825-16.144 0.767-6.193 4.363-9.222 6.417-14.606z"/>
		<path d="m531.25 583.25c3.072-8.234 3.251-17.377 1.208-25.865-2.054-8.473-6.53-16.54-13.376-21.994-3.383-2.745-7.388-4.699-11.602-5.717-4.247-1.025-8.602-1.342-12.95-1.225-4.335 0.151-8.68 0.784-12.756 2.207-4.063 1.404-7.891 3.58-10.791 6.683l-0.989 1.239c-0.323 0.417-0.684 0.808-0.925 1.28l-0.807 1.359-0.201 0.34-0.051 0.085c-0.021 0.032-7e-3 0.012-0.032 0.064l-0.086 0.188-0.341 0.747c-0.834 1.912-1.358 3.993-1.639 6.103-0.563 4.232-0.274 8.574 0.35 12.847 1.298 8.573 3.931 16.912 6.42 25.324 0.629 2.087 1.212 4.275 1.764 6.345 0.579 2.154 1.226 4.1 1.978 6.164 1.472 4.081 3.17 8.145 4.508 12.41 1.319 4.247 2.378 8.762 2.073 13.421l-0.138 1.737c-0.052 0.578-0.205 1.146-0.305 1.721-0.131 0.567-0.186 1.154-0.382 1.706l-0.545 1.664-0.278 0.83-0.371 0.79-0.747 1.578-0.188 0.395-0.23 0.394-0.419 0.707c-0.264 0.467-0.59 0.95-0.912 1.432-2.535 3.806-5.433 7.144-8.531 10.362-3.102 3.197-6.449 6.168-10.146 8.77-1.879 1.264-3.802 2.497-6.027 3.348-0.524 0.253-1.134 0.391-1.714 0.565l-0.439 0.124-0.22 0.063c-0.074 0.016 0.013 8e-3 -0.195 0.043l-0.102 0.015-0.813 0.117c-0.248 0.049-0.583 0.062-0.914 0.071-0.323 9e-3 -0.662 0.029-0.973 0.02-0.598-0.042-1.21-0.06-1.781-0.154-2.324-0.312-4.41-0.961-6.31-0.969-0.951-0.029-1.809 0.188-2.64 0.508-0.391 0.229-0.816 0.375-1.177 0.691l-0.566 0.415c-0.182 0.155-0.349 0.339-0.524 0.506-2.704 2.739-5.058 7.023-3.207 10.208 0.853 1.6 2.486 2.855 4.295 3.78 0.441 0.252 0.936 0.427 1.4 0.646 0.461 0.188 1.016 0.373 1.422 0.532 1.048 0.299 2.121 0.65 3.111 0.825 2.021 0.438 4.161 0.675 6.273 0.653 2.118-0.01 4.25-0.178 6.35-0.582 4.209-0.759 8.309-2.188 12.233-3.999 7.86-3.646 15.05-8.704 21.829-14.189 3.391-2.753 6.682-5.634 9.922-8.577 3.242-2.946 6.472-5.901 9.591-8.967 3.107-3.073 6.09-6.284 8.713-9.774 0.623-0.894 1.323-1.74 1.883-2.675 0.559-0.934 1.14-1.863 1.682-2.802 0.992-1.928 1.968-3.963 1.867-6.138-0.043-1.077-0.392-2.12-0.72-3.162-0.333-1.044-0.658-2.097-0.888-3.173-0.421-2.159-0.774-4.317-1.028-6.499-0.24-2.174-0.303-4.409 0.24-6.552 0.313-1.056 0.813-2.064 1.574-2.87 0.773-0.809 1.814-1.258 2.866-1.564l-0.025 0.028 0.376-1.976c0.051-0.332 0.191-0.642 0.283-0.963l0.309-0.957c0.086-0.325 0.256-0.618 0.382-0.928l0.408-0.919c0.131-0.308 0.309-0.593 0.461-0.891l0.476-0.885 2.021-3.469c0.31-0.593 0.631-1.181 0.932-1.777l0.801-1.838zl-0.796 1.843c-0.299 0.599-0.617 1.188-0.925 1.781l-2.006 3.478-0.471 0.886c-0.151 0.298-0.328 0.583-0.458 0.892l-0.402 0.918c-0.124 0.311-0.293 0.604-0.378 0.928l-0.304 0.955c-0.09 0.321-0.229 0.63-0.277 0.961l-0.367 1.97-4e-3 0.022-0.021 6e-3c-1.04 0.31-2.065 0.758-2.824 1.557-0.745 0.796-1.235 1.793-1.54 2.839-0.529 2.124-0.459 4.347-0.211 6.513 0.254 2.17 0.654 4.334 1.093 6.471 0.241 1.065 0.575 2.104 0.921 3.144 0.34 1.036 0.711 2.095 0.771 3.218 0.133 2.265-0.859 4.375-1.824 6.311-0.54 0.965-1.11 1.902-1.665 2.855-0.555 0.951-1.247 1.81-1.864 2.72-2.609 3.539-5.516 6.852-8.581 9.995-3.069 3.143-6.246 6.171-9.429 9.185-3.186 3.016-6.433 5.978-9.789 8.819-6.715 5.661-13.869 10.931-21.854 14.838-3.988 1.939-8.199 3.513-12.604 4.401-2.195 0.469-4.449 0.697-6.708 0.753-2.269 0.064-4.518-0.129-6.787-0.572-1.173-0.196-2.19-0.514-3.256-0.793-0.624-0.213-1.112-0.368-1.669-0.58-0.532-0.234-1.078-0.42-1.598-0.697-2.073-1.025-4.175-2.445-5.45-4.73-0.601-1.13-1.022-2.429-1.01-3.729-0.011-1.288 0.226-2.56 0.677-3.689 0.11-0.285 0.212-0.573 0.334-0.854l0.425-0.827c0.284-0.587 0.585-1.025 0.881-1.483l0.223-0.346 0.111-0.173c0.106-0.157 0.108-0.144 0.167-0.224l0.547-0.697 0.55-0.695 0.642-0.647c0.219-0.213 0.423-0.435 0.654-0.639l0.748-0.57c0.474-0.406 1.083-0.67 1.643-0.98 1.192-0.503 2.504-0.807 3.753-0.786 2.502 8e-3 4.663 0.688 6.683 0.912 3.86 0.731 7.688-1.377 11.145-3.767 3.461-2.456 6.692-5.338 9.676-8.442 2.954-3.108 5.843-6.404 8.18-9.891 1.215-1.764 2.174-3.601 2.875-5.514l0.485-1.457c0.179-0.48 0.22-0.999 0.339-1.496 0.088-0.504 0.231-0.999 0.277-1.511l0.126-1.539c0.304-4.125-0.659-8.318-1.865-12.422-1.234-4.116-2.869-8.172-4.32-12.353-0.727-2.06-1.43-4.288-1.96-6.373-0.551-2.172-1.076-4.223-1.659-6.348-2.307-8.428-4.809-16.925-5.961-25.735-0.55-4.397-0.768-8.897-0.083-13.356 0.344-2.225 0.938-4.426 1.901-6.514l0.355-0.74 0.089-0.186c5e-3 -8e-3 0.043-0.093 0.061-0.117l0.057-0.091 0.225-0.363 0.899-1.449c0.273-0.502 0.666-0.918 1.022-1.358l1.091-1.306c3.174-3.26 7.24-5.44 11.463-6.806 4.239-1.382 8.684-1.932 13.096-1.997 4.401-0.033 8.863 0.39 13.119 1.511 2.148 0.535 4.21 1.379 6.175 2.38 1.97 0.995 3.827 2.214 5.523 3.621 3.429 2.78 6.23 6.265 8.44 10.058 2.181 3.816 3.78 7.949 4.796 12.217 2.008 8.509 1.789 17.662-1.318 25.884z"/>
		<path d="m247 324s-0.257 0.345-0.743 0.898c-0.237 0.283-0.419 0.675-0.683 1.043-0.238 0.4-0.471 0.913-0.75 1.414-0.231 0.558-0.512 1.111-0.76 1.757-0.268 0.623-0.533 1.297-0.816 1.996-0.567 1.398-1.181 2.909-1.905 4.414-0.357 0.746-0.757 1.495-1.163 2.215-0.431 0.719-0.854 1.423-1.339 2.071-0.477 0.652-0.956 1.266-1.485 1.802-0.264 0.266-0.49 0.543-0.763 0.772-0.273 0.225-0.536 0.442-0.789 0.651-0.476 0.438-1.021 0.726-1.471 0.997-0.229 0.131-0.43 0.267-0.636 0.363-0.214 0.083-0.41 0.16-0.588 0.229-0.707 0.268-1.109 0.378-1.109 0.378s0.28-0.344 0.768-0.87c0.121-0.129 0.254-0.273 0.4-0.429 0.13-0.169 0.272-0.353 0.423-0.549 0.294-0.395 0.646-0.797 0.961-1.305 0.33-0.49 0.68-1.012 1.004-1.605 0.357-0.562 0.679-1.198 1.025-1.843 0.354-0.639 0.666-1.345 1.028-2.03 0.34-0.71 0.686-1.432 1.032-2.153 0.706-1.444 1.433-2.924 2.226-4.28 0.393-0.681 0.804-1.328 1.235-1.928 0.397-0.608 0.899-1.137 1.31-1.627 0.461-0.476 0.889-0.883 1.325-1.216 0.456-0.322 0.844-0.598 1.176-0.75 0.679-0.282 1.087-0.415 1.087-0.415z"/>
		<path d="m464 549s0.107 0.016 0.297 0.043c0.171 0.027 0.376 0.066 0.568 0.113 0.383 0.094 0.633 0.219 0.635 0.344 1e-3 0.125-0.246 0.25-0.631 0.344-0.192 0.047-0.399 0.086-0.57 0.113-0.191 0.027-0.299 0.043-0.299 0.043s-0.108-0.016-0.299-0.043c-0.171-0.027-0.378-0.066-0.57-0.113-0.385-0.094-0.632-0.219-0.631-0.344 2e-3 -0.125 0.252-0.25 0.635-0.344 0.192-0.047 0.397-0.086 0.568-0.113 0.19-0.027 0.297-0.043 0.297-0.043z"/>
		<path d="m317.41 577.75c-9.344 15.57-11.621 27.74-20.166 43.468-7.948 14.629-11.161 31.028-19.223 46.407-6.672-5.089-11.34 10.454-15.021 14.374-6.003 6.393-9.115 5.427-19.003 5.466-8.148 0.033-21.255-3.266-13.052-14.052 6.296-8.278 25.052-3.747 27.801-21.613 1.292-8.397 3.179-17.246 4.474-25.801 2.521-16.657 4.236-34.351 6.726-51 2.372-15.857-5.615-28.082-12.699-42.249-6.957-13.913-10.93-28.23-14.03-42.751-2.978-13.947-9.592-28.991-16.468-41.751-5.509-10.223-4.751-24.309-20.898-30.096 0.047 0.548-17.438-2.399-19.363-3.285-5.442-2.505-8.761-5.82-11.592-11.073-2.4-4.454-6.422-15.104-4.449-20.009 2.832-7.039 11.868-7.522 16.67-12.537 4.205-4.391 4.847-9.094 10.43-13.222 5.794-4.285 25.16-16.136 32.451-10.026l-8-3c4.052-2.489-0.8-11.142 0.226-16.924 2.965 4.177 8.695 15.543 13.774 12.924l11-17c3.668 8.267 7.071 19.993 11.972 28.028 4.873 7.99 13.628 12.477 20 19.19 14.681 15.472 18.9 35.042 42.026 40.781 0.343 12.667 70.899 8.611 83 8 33.587-1.696 67.129-1 101-1 16.472 0 33.573 0.39 50-1.223 18.457-1.812 26.844-4.711 33.249-22.774 4.951-13.96 6.653-30.764 8.747-45.007 1.927-13.104 4.935-35.68 1.778-48.771-2.33-9.661-6.773-32.119-16.527-33.497-35.247-4.978-30.747-26.978-17.247-24.728v1c-0.41-0.572 3.036-0.192-1.119-1.02 14.669 3.114 26.617 3.354 38.868 13.271 11.799 9.55 17.188 23.501 19.474 37.749 5.187 32.34 4.575 63.901-5.004 94.219-6.737 21.321-18.031 45.433-18.219 67.781l1-10c0.057 16.124 10.259 21.94 13.996 36.004 3.838 14.436 1.376 27.438-0.219 42.773-1.502 14.448 3.035 26.652 8.441 40.004 4.282 10.573 9.442 23.674 16.782 32.219 11.662 9.288-0.439 59.246-4.223 71-4.669 14.506-9.094 14.454-23.777 15.223-5.81 0.304-12.157 2.604-15.023-3.199-3.291-6.665 2.723-12.801 8.023-15.023l1-2c3.145-4.727 5.123-9.513 6.781-14.996 1.87-6.187 4.637-17.142 0.516-23.274-3.099-4.611-14.68-8.813-19.543-11.507-12.818-7.099-24.011-13.847-35.005-23.976-22.988-21.178-34.669-46.879-69.972-41.47-15.107 2.314-29.97 5.648-45.777 7.223-15.837 1.577-31.529-0.444-47.777-1.223-16.804-0.805-31.152-0.813-47.445 2-17.274 2.981-25.331 11.684-32.778 27.222"/>
		<path d="m317.41 577.75l-1.534 2.659-1.464 2.698c-0.948 1.813-1.854 3.648-2.719 5.503-0.859 1.857-1.679 3.732-2.475 5.617-0.786 1.89-1.558 3.785-2.316 5.686-1.519 3.801-3.027 7.608-4.681 11.356-0.822 1.875-1.678 3.737-2.59 5.571-0.879 1.849-1.881 3.644-2.805 5.465-0.956 1.813-1.832 3.654-2.662 5.521-0.836 1.865-1.615 3.757-2.363 5.659-1.497 3.807-2.859 7.665-4.228 11.523-1.368 3.857-2.745 7.717-4.259 11.525-0.757 1.905-1.555 3.794-2.388 5.668l-1.296 2.79-1.376 2.754-0.139 0.278-0.252-0.192c-0.711-0.54-1.542-0.934-2.409-0.947-0.866-0.031-1.709 0.331-2.437 0.842-1.46 1.059-2.556 2.596-3.559 4.137-0.998 1.559-1.882 3.197-2.772 4.836-0.9 1.635-1.753 3.301-2.887 4.845-0.28 0.383-0.632 0.756-0.954 1.077-0.332 0.331-0.636 0.676-0.997 0.992-0.693 0.652-1.41 1.275-2.196 1.816-0.765 0.571-1.63 1.008-2.508 1.393-0.898 0.337-1.826 0.619-2.771 0.748-1.888 0.307-3.775 0.292-5.642 0.294l-5.6-0.021c-1.896-0.044-3.773-0.235-5.632-0.604-1.853-0.375-3.695-0.909-5.403-1.81-1.676-0.879-3.337-2.24-3.943-4.225-0.604-1.982 8e-3 -4.049 0.907-5.717 0.45-0.867 0.975-1.629 1.572-2.429 0.552-0.712 1.316-1.45 2.074-2.024 1.567-1.147 3.324-1.946 5.094-2.594 3.543-1.302 7.183-2.157 10.521-3.688 1.661-0.765 3.243-1.688 4.614-2.858 1.362-1.178 2.498-2.599 3.335-4.189 1.744-3.175 1.981-6.942 2.651-10.621 1.244-7.368 2.682-14.701 3.765-22.053l1.516-11.091 1.371-11.101c0.92-7.402 1.762-14.821 2.82-22.22l0.758-5.553c0.267-1.841 0.418-3.627 0.428-5.466 0.027-3.656-0.511-7.305-1.478-10.845-1.938-7.103-5.454-13.7-8.881-20.313l-2.563-4.987-2.416-5.071c-0.773-1.705-1.478-3.461-2.22-5.19-0.714-1.74-1.337-3.508-2.01-5.261-2.549-7.061-4.574-14.292-6.294-21.577-0.867-3.641-1.587-7.33-2.538-10.878-0.953-3.569-2.09-7.104-3.355-10.587-2.537-6.971-5.573-13.764-8.919-20.397-0.835-1.659-1.694-3.307-2.572-4.944-0.895-1.632-1.748-3.408-2.414-5.177-1.369-3.543-2.377-7.138-3.743-10.535-1.349-3.395-3.115-6.592-5.623-9.13-2.485-2.556-5.659-4.366-9.055-5.583l1.382-1.06c0.108 0.343-0.36 0.966-0.413 0.929-0.099 0.075-0.214 0.136-0.329 0.177-0.094 0.03-0.166 0.045-0.244 0.059-0.086 0.011-0.183 0.02-0.237 0.021-0.133 6e-3 -0.231 3e-3 -0.333 0l-0.562-0.033-1.053-0.105-2.054-0.266c-1.361-0.192-2.713-0.403-4.065-0.624-2.703-0.446-5.393-0.922-8.09-1.483-0.675-0.143-1.349-0.29-2.035-0.462-0.346-0.088-0.684-0.175-1.068-0.305-0.489-0.174-0.723-0.326-1.045-0.469-1.265-0.616-2.515-1.331-3.679-2.147-2.349-1.628-4.369-3.748-5.952-6.094-1.593-2.335-2.835-4.879-3.864-7.455-1.032-2.581-1.9-5.227-2.49-7.981-0.289-1.378-0.505-2.785-0.557-4.241-0.043-1.441 0.055-2.999 0.711-4.495 0.576-1.361 1.486-2.665 2.549-3.69 1.062-1.051 2.273-1.879 3.497-2.599 2.456-1.432 5.001-2.45 7.267-3.761 1.13-0.653 2.187-1.379 3.083-2.233l0.329-0.326 0.319-0.35c0.227-0.252 0.468-0.509 0.65-0.749 0.393-0.473 0.785-1 1.156-1.537 1.486-2.14 2.707-4.645 4.502-6.91 0.888-1.13 1.904-2.178 3.011-3.105 1.131-0.93 2.257-1.696 3.411-2.473 4.612-3.044 9.437-5.749 14.609-7.837 2.591-1.024 5.278-1.895 8.139-2.292 1.429-0.191 2.911-0.253 4.422-0.027 1.5 0.225 3.06 0.797 4.32 1.849l5.533 4.621-6.757-2.522-8.004-2.988-2.262-0.844 2.047-1.383c0.382-0.258 0.649-0.563 0.815-1.05 0.168-0.479 0.235-1.086 0.227-1.731-0.023-1.3-0.288-2.71-0.563-4.131-0.278-1.426-0.591-2.881-0.8-4.397-0.2-1.514-0.333-3.102-0.048-4.774l0.519-3.041 1.763 2.528c1.013 1.452 1.871 2.881 2.782 4.287 0.902 1.403 1.823 2.777 2.81 4.071 0.989 1.28 2.053 2.51 3.229 3.405 0.584 0.442 1.199 0.78 1.77 0.928 0.573 0.135 1.06 0.074 1.564-0.169l-0.487 0.441 10.992-17.005 1.297-2.007 0.961 2.184c2.018 4.589 3.652 9.251 5.43 13.83 1.776 4.57 3.623 9.113 6.026 13.268l0.43 0.74 0.508 0.772c0.335 0.537 0.682 1.001 1.028 1.449 0.683 0.916 1.483 1.827 2.297 2.686 1.643 1.729 3.465 3.319 5.349 4.87 1.886 1.551 3.835 3.068 5.75 4.672 1.912 1.597 3.798 3.309 5.511 5.176 1.688 1.818 3.322 3.787 4.831 5.756 1.521 1.982 2.962 4.014 4.366 6.055 2.81 4.082 5.474 8.214 8.449 12.049 2.966 3.832 6.292 7.35 10.199 10.081 3.89 2.749 8.327 4.651 12.973 5.813l1.006 0.251 0.016 1.019c0.011 0.707 0.451 1.407 1.238 2.039 0.768 0.628 1.768 1.135 2.805 1.563 2.098 0.85 4.396 1.414 6.709 1.869 4.646 0.896 9.423 1.361 14.201 1.693 9.571 0.633 19.207 0.677 28.833 0.526 9.638-0.155 19.24-0.588 28.904-1.09 9.632-0.442 19.316-0.773 28.982-0.914 4.832-0.086 9.664-0.149 14.495-0.164l14.49-0.039 28.965 0.09 28.956 0.051c9.639-0.018 19.269-0.106 28.835-0.842 4.776-0.384 9.583-0.793 14.23-1.621 4.631-0.836 9.172-2.159 12.787-4.858 3.642-2.662 6.194-6.625 8.119-10.881 0.486-1.065 0.929-2.157 1.356-3.256l0.603-1.644 0.576-1.716c0.406-1.151 0.701-2.264 1.057-3.396 0.313-1.146 0.643-2.291 0.93-3.448 2.344-9.254 3.669-18.788 5.001-28.34l2.029-14.332c0.642-4.766 1.2-9.539 1.606-14.316 0.402-4.776 0.657-9.562 0.613-14.323-0.062-4.77-0.374-9.473-1.554-14.035-1.098-4.712-2.178-9.375-3.575-13.931-1.407-4.523-3.043-9.05-5.559-12.849-1.257-1.862-2.811-3.535-4.624-4.275-0.465-0.188-0.879-0.299-1.414-0.377l-1.796-0.278c-1.228-0.208-2.435-0.427-3.639-0.695-4.807-1.053-9.598-2.581-13.956-5.183-2.167-1.306-4.221-2.904-5.903-4.936-1.655-2.024-2.957-4.577-3.054-7.434-0.043-1.414 0.233-2.871 0.866-4.178 0.627-1.309 1.605-2.451 2.785-3.274 2.378-1.679 5.363-2.035 7.989-1.579l1.195 0.207v1.204l-1e-3 1-2e-3 4.753-2.588-3.921c-0.11-0.167-0.321-0.468-0.299-1.025 0.04-0.575 0.386-0.95 0.561-1.088 0.38-0.289 0.532-0.297 0.68-0.357 0.271-0.082 0.438-0.104 0.576-0.132l0.117-0.022c-0.02 0.012-3e-3 -0.017-0.233 0.096l-0.122 0.075c-0.072 0.054-0.072 0.048-0.193 0.164-0.146 0.13-0.468 0.591-0.389 1.154 0.08 0.507 0.3 0.701 0.378 0.794 0.13 0.127 0.141 0.126 0.216 0.181 0.158 0.098 0.154 0.082 0.173 0.093 9e-3 3e-3 -1e-3 0-0.017-5e-3l-0.133-0.039c-0.454-0.119-1.019-0.232-1.551-0.34l0.575-2.796c5.063 1.075 10.215 1.875 15.389 2.936 2.586 0.544 5.172 1.174 7.727 1.963 2.557 0.788 5.06 1.797 7.479 2.979 4.843 2.39 9.199 5.639 12.986 9.466 3.747 3.875 6.837 8.344 9.203 13.144 2.379 4.795 4.102 9.879 5.309 15.047 0.621 2.583 1.102 5.192 1.491 7.81 0.383 2.584 0.787 5.158 1.093 7.782 0.693 5.222 1.143 10.448 1.513 15.692 0.12 2.625 0.315 5.246 0.35 7.875l0.095 3.941-8e-3 3.944c0.021 2.629-0.128 5.257-0.192 7.886-0.182 2.624-0.26 5.255-0.536 7.872-0.398 5.248-1.163 10.461-1.991 15.657-0.515 2.582-0.916 5.185-1.533 7.746l-0.865 3.853-0.994 3.822-0.498 1.911-0.563 1.893-1.126 3.785c-0.789 2.495-1.632 4.999-2.487 7.469-3.433 9.901-7.179 19.644-10.205 29.583-1.51 4.968-2.855 9.979-3.836 15.05-0.982 5.066-1.621 10.195-1.674 15.321l-2.598-0.141 1.005-9.999 2.588 0.124c0.017 3.22 0.46 6.413 1.43 9.462 0.955 3.057 2.419 5.951 4.076 8.794 1.652 2.848 3.463 5.686 5.02 8.721 1.562 3.026 2.845 6.26 3.628 9.615 0.406 1.59 0.742 3.304 1.023 4.99 0.117 0.843 0.255 1.683 0.354 2.527l0.253 2.536c0.273 3.387 0.273 6.78 0.12 10.148-0.316 6.741-1.235 13.371-1.96 19.977-0.085 0.813-0.192 1.68-0.259 2.448l-0.192 2.487-0.074 2.412 0.042 2.443c0.129 3.257 0.558 6.503 1.224 9.708 1.332 6.42 3.595 12.65 6.029 18.824l3.729 9.259c1.261 3.073 2.563 6.123 3.959 9.121 2.802 5.974 5.955 11.832 10.147 16.804l-0.151-0.146c1.319 1.07 2.245 2.454 2.916 3.874 0.677 1.425 1.112 2.905 1.451 4.386 0.659 2.968 0.885 5.955 0.955 8.922 0.117 5.938-0.426 11.818-1.184 17.647-0.773 5.83-1.812 11.611-3.018 17.354-1.217 5.741-2.58 11.445-4.202 17.102-0.816 2.822-1.725 5.649-2.964 8.399-0.627 1.368-1.338 2.723-2.252 3.983-0.913 1.255-2.038 2.419-3.381 3.287-2.713 1.766-5.852 2.254-8.776 2.571-2.955 0.298-5.896 0.394-8.788 0.563-2.818 0.179-5.733 0.86-8.892 0.581-1.563-0.142-3.252-0.686-4.527-1.827-0.638-0.557-1.158-1.223-1.566-1.926-0.411-0.716-0.701-1.396-0.954-2.21-0.481-1.543-0.523-3.241-0.147-4.808 0.37-1.574 1.114-3.011 2.04-4.264 1.886-2.494 4.403-4.379 7.244-5.598l-0.459 0.43 1.003-1.998 0.026-0.053 0.029-0.044c4.31-6.418 6.771-13.979 8.457-21.549 0.755-3.784 1.222-7.698 0.563-11.402-0.339-1.83-1-3.612-2.15-4.975-1.157-1.34-2.79-2.451-4.417-3.45-3.311-1.995-6.897-3.599-10.466-5.274-0.894-0.42-1.788-0.845-2.681-1.296-0.903-0.449-1.773-0.959-2.622-1.433-1.716-0.967-3.436-1.921-5.14-2.926-6.834-3.957-13.532-8.197-19.81-13.035-6.307-4.808-12.037-10.329-17.432-16.079-5.42-5.738-10.552-11.718-16.164-17.188-5.6-5.44-11.834-10.379-19.094-13.244-7.214-2.968-15.216-3.565-22.956-2.688-7.768 1.024-15.524 2.498-23.283 3.821-7.763 1.342-15.553 2.599-23.401 3.414-7.848 0.887-15.783 0.853-23.649 0.475-7.876-0.377-15.723-1.077-23.581-1.523-7.86-0.418-15.73-0.721-23.598-0.582-7.866 0.132-15.728 0.741-23.504 1.949-3.896 0.527-7.766 1.335-11.456 2.695-3.688 1.35-7.178 3.266-10.223 5.756-3.044 2.492-5.638 5.503-7.846 8.757-2.213 3.257-4.083 6.734-5.798 10.277 1.696-3.552 3.548-7.04 5.746-10.313 2.193-3.27 4.776-6.302 7.818-8.82 3.042-2.516 6.54-4.461 10.237-5.837 3.7-1.386 7.583-2.218 11.482-2.767 7.782-1.252 15.656-1.904 23.536-2.079 7.882-0.182 15.764 0.079 23.633 0.455 7.871 0.404 15.721 1.062 23.582 1.396 7.86 0.334 15.73 0.327 23.54-0.598 7.816-0.854 15.579-2.15 23.328-3.532 7.759-1.366 15.479-2.878 23.321-3.955 7.853-0.935 16.063-0.375 23.494 2.635 3.709 1.47 7.224 3.417 10.454 5.736 3.239 2.311 6.244 4.919 9.102 7.657 5.7 5.499 10.871 11.46 16.296 17.142 5.405 5.705 11.1 11.107 17.341 15.841 6.218 4.763 12.87 8.947 19.674 12.859 1.69 0.99 3.417 1.941 5.136 2.902 0.871 0.483 1.702 0.968 2.564 1.392 0.865 0.436 1.751 0.852 2.641 1.267 3.561 1.661 7.188 3.264 10.637 5.325 1.712 1.059 3.411 2.159 4.85 3.8 1.4 1.663 2.14 3.711 2.524 5.731 0.731 4.085 0.228 8.15-0.533 12.06-0.811 3.919-1.927 7.722-3.288 11.476-1.367 3.75-3.154 7.375-5.363 10.727l0.056-0.097-0.997 2.002-0.147 0.295-0.312 0.135c-2.523 1.084-4.838 2.837-6.468 5.02-1.633 2.172-2.405 4.931-1.587 7.444 0.177 0.581 0.462 1.255 0.784 1.803 0.327 0.561 0.724 1.057 1.189 1.461 0.926 0.818 2.149 1.235 3.484 1.359 2.697 0.247 5.574-0.396 8.576-0.614 2.941-0.181 5.848-0.285 8.71-0.584 2.84-0.307 5.673-0.811 7.898-2.284 2.239-1.451 3.74-3.877 4.897-6.45 1.157-2.585 2.04-5.343 2.838-8.135 1.585-5.589 2.925-11.269 4.114-16.968 1.18-5.702 2.191-11.44 2.938-17.205 0.732-5.761 1.245-11.563 1.113-17.321-0.076-2.871-0.309-5.743-0.928-8.485-0.622-2.698-1.654-5.433-3.606-7.001l-0.087-0.069-0.064-0.076c-4.435-5.23-7.664-11.227-10.534-17.286-1.428-3.039-2.753-6.118-4.031-9.206l-3.771-9.277c-2.468-6.208-4.803-12.554-6.204-19.198-0.7-3.316-1.158-6.699-1.304-10.104l-0.051-2.556 0.073-2.584 0.187-2.497c0.074-0.892 0.173-1.679 0.258-2.523 0.712-6.644 1.594-13.239 1.894-19.82 0.146-3.289 0.142-6.575-0.125-9.833l-0.245-2.438c-0.097-0.811-0.23-1.615-0.343-2.423-0.271-1.6-0.57-3.159-0.99-4.798-0.736-3.14-1.932-6.149-3.426-9.041-1.487-2.898-3.268-5.687-4.965-8.601-1.698-2.906-3.275-5.995-4.314-9.308-1.055-3.307-1.54-6.787-1.559-10.23l2.588 0.124-0.995 10.001-2.598-0.141c0.049-5.328 0.705-10.611 1.706-15.799 0.999-5.191 2.362-10.288 3.886-15.317 3.054-10.061 6.805-19.842 10.206-29.688 0.852-2.467 1.674-4.917 2.458-7.403l1.104-3.728 0.553-1.864 0.488-1.881 0.975-3.764 0.848-3.794c0.606-2.521 0.998-5.087 1.503-7.629 0.811-5.121 1.56-10.257 1.946-15.432 0.271-2.581 0.345-5.177 0.521-7.764 0.061-2.594 0.206-5.186 0.182-7.782l4e-3 -3.893-0.097-3.893c-0.036-2.596-0.233-5.188-0.354-7.781-0.371-5.177-0.822-10.366-1.51-15.503-0.301-2.566-0.709-5.154-1.095-7.737-0.382-2.549-0.851-5.082-1.454-7.579-1.173-5-2.837-9.879-5.107-14.443-2.257-4.569-5.188-8.786-8.709-12.423-3.563-3.593-7.694-6.671-12.232-8.9-4.535-2.264-9.478-3.645-14.53-4.692-5.063-1.033-10.244-1.833-15.404-2.923l0.574-2.795c0.566 0.115 1.104 0.218 1.736 0.381l0.271 0.079 0.182 0.065c0.083 0.037 0.145 0.048 0.362 0.185 0.089 0.065 0.115 0.073 0.257 0.213 0.09 0.105 0.32 0.315 0.403 0.839 0.083 0.58-0.25 1.058-0.407 1.2-0.127 0.124-0.136 0.121-0.215 0.181-0.074 0.051-0.108 0.068-0.145 0.088-0.292 0.145-0.344 0.135-0.431 0.164l-0.296 0.062-0.244 0.05c0.015-0.017 0.032 0.023 0.302-0.178 0.121-0.094 0.422-0.408 0.457-0.912 0.018-0.486-0.159-0.72-0.23-0.831l-2.59 0.833-1e-3 -1 1.194 1.41c-2.101-0.362-4.267-0.038-5.867 1.099-1.617 1.112-2.513 3.03-2.437 5.025 0.063 2.008 1.023 4.013 2.409 5.699 1.401 1.692 3.203 3.114 5.166 4.292 3.947 2.358 8.481 3.826 13.084 4.825 1.152 0.256 2.321 0.466 3.473 0.662l1.782 0.274c0.659 0.091 1.422 0.285 2.073 0.556 2.693 1.131 4.499 3.243 5.936 5.33 2.825 4.279 4.477 8.959 5.943 13.622 1.439 4.675 2.542 9.425 3.639 14.112 0.281 1.14 0.563 2.416 0.775 3.631 0.196 1.229 0.374 2.459 0.488 3.688 0.25 2.458 0.357 4.912 0.383 7.359 0.05 4.894-0.206 9.76-0.608 14.603-0.407 4.842-0.967 9.662-1.608 14.464l-2.017 14.345c-1.318 9.562-2.663 19.193-5.071 28.668-0.296 1.185-0.634 2.36-0.96 3.541-0.366 1.17-0.699 2.391-1.097 3.516l-0.578 1.715-0.645 1.755c-0.448 1.149-0.914 2.295-1.431 3.425-1.039 2.255-2.216 4.481-3.713 6.54-1.478 2.062-3.27 3.962-5.353 5.488-2.069 1.546-4.404 2.69-6.781 3.531-2.382 0.853-4.817 1.402-7.242 1.846-4.862 0.858-9.69 1.259-14.534 1.645-9.69 0.735-19.386 0.814-29.05 0.822l-28.968-0.08-28.954-0.121-14.471 0.024c-4.824 0.01-9.646 0.068-14.466 0.149-9.64 0.131-19.254 0.45-28.91 0.883-9.618 0.49-19.308 0.917-28.977 1.063-9.676 0.142-19.366 0.089-29.063-0.562-4.848-0.344-9.7-0.816-14.537-1.752-2.417-0.482-4.833-1.064-7.214-2.028-1.186-0.497-2.375-1.074-3.484-1.973-0.551-0.448-1.083-0.991-1.505-1.677-0.424-0.682-0.698-1.531-0.719-2.377l1.022 1.27c-4.916-1.23-9.694-3.278-13.865-6.234-4.19-2.935-7.707-6.681-10.764-10.64-3.069-3.966-5.749-8.138-8.528-12.181-1.388-2.023-2.8-4.018-4.279-5.949-1.491-1.945-3.006-3.778-4.671-5.577-3.223-3.539-7.146-6.449-10.99-9.61-1.92-1.584-3.823-3.243-5.577-5.092-0.879-0.932-1.712-1.875-2.503-2.937-0.405-0.53-0.791-1.058-1.108-1.568l-0.507-0.773-0.502-0.858c-2.533-4.395-4.4-9.031-6.192-13.647-1.786-4.617-3.416-9.272-5.367-13.717l2.258 0.177-11.008 16.994-0.198 0.305-0.289 0.136c-0.51 0.239-1.063 0.445-1.65 0.493-0.583 0.078-1.16 2e-3 -1.698-0.117-1.064-0.278-1.935-0.802-2.692-1.369-0.757-0.573-1.412-1.209-2.02-1.865-0.606-0.657-1.165-1.337-1.695-2.029-1.056-1.386-2.008-2.815-2.926-4.245-0.918-1.423-1.797-2.881-2.712-4.193l2.282-0.512c-0.216 1.227-0.127 2.605 0.059 3.99 0.187 1.391 0.485 2.807 0.764 4.26 0.273 1.457 0.566 2.943 0.596 4.581 4e-3 0.818-0.062 1.695-0.379 2.603-0.161 0.451-0.393 0.908-0.719 1.311-0.31 0.418-0.725 0.742-1.143 1.019l-0.214-2.227 7.995 3.012-1.224 2.098c-1.688-1.432-4.323-1.635-6.839-1.292-2.548 0.343-5.095 1.146-7.569 2.118-4.951 1.979-9.699 4.616-14.188 7.562-1.11 0.74-2.24 1.512-3.217 2.313-0.984 0.822-1.878 1.737-2.678 2.747-1.614 2.007-2.814 4.437-4.435 6.777-0.406 0.583-0.827 1.15-1.308 1.723-0.236 0.3-0.463 0.538-0.693 0.792l-0.371 0.403-0.398 0.393c-1.083 1.025-2.297 1.843-3.527 2.549-2.464 1.408-5.008 2.418-7.267 3.733-2.262 1.296-4.183 2.964-5.137 5.238-0.455 1.009-0.572 2.247-0.533 3.516 0.041 1.27 0.232 2.569 0.5 3.858 0.543 2.581 1.37 5.137 2.355 7.62 0.984 2.487 2.146 4.872 3.621 7.051 1.461 2.174 3.262 4.069 5.391 5.558 1.067 0.752 2.188 1.398 3.371 1.98 0.298 0.137 0.657 0.332 0.814 0.377 0.261 0.089 0.583 0.176 0.897 0.257 0.636 0.162 1.293 0.308 1.952 0.449 2.639 0.558 5.317 1.04 7.992 1.49 1.338 0.223 2.678 0.436 4.016 0.628l2 0.265 0.981 0.101 0.459 0.029 0.178 1e-3c0.031 0 0.019-2e-3 0.018 1e-3 -0.037 5e-3 -0.066 0.011-0.12 0.03-0.096 0.031-0.192 0.083-0.271 0.148-0.031-0.044-0.5 0.55-0.38 0.876l1.382-1.06c3.61 1.303 7.086 3.287 9.812 6.107 2.75 2.801 4.64 6.284 6.028 9.811 1.406 3.536 2.406 7.147 3.72 10.57 0.647 1.726 1.407 3.323 2.299 4.967 0.88 1.653 1.742 3.317 2.579 4.993 3.355 6.701 6.4 13.567 8.947 20.633 1.271 3.533 2.413 7.113 3.374 10.758 0.969 3.665 1.666 7.31 2.517 10.931 1.688 7.243 3.673 14.414 6.172 21.402 0.659 1.732 1.272 3.488 1.969 5.202 0.725 1.701 1.404 3.413 2.166 5.108l2.382 5.043 2.539 4.976c3.401 6.62 6.96 13.315 8.945 20.663 0.988 3.66 1.54 7.464 1.5 11.274-0.013 1.893-0.186 3.832-0.462 5.683l-0.773 5.537c-1.072 7.375-1.944 14.785-2.91 22.188l-1.433 11.112-1.576 11.083c-1.132 7.411-2.608 14.723-3.888 22.064-0.322 1.845-0.601 3.666-0.958 5.53-0.367 1.874-0.96 3.726-1.879 5.43-0.912 1.704-2.154 3.237-3.624 4.49-1.479 1.245-3.159 2.206-4.889 2.989-3.473 1.561-7.152 2.396-10.618 3.648-1.733 0.62-3.41 1.379-4.867 2.43-0.726 0.557-1.326 1.107-1.93 1.863-0.519 0.692-1.064 1.467-1.476 2.256-0.858 1.563-1.37 3.383-0.872 5.031 0.485 1.654 1.921 2.896 3.498 3.732 1.593 0.854 3.37 1.386 5.166 1.76 1.799 0.37 3.647 0.568 5.48 0.623l5.594 0.054c1.859 0.011 3.723 0.033 5.525-0.25 3.677-0.432 6.65-2.981 9.026-5.714 1.087-1.461 1.956-3.124 2.861-4.75 0.899-1.634 1.798-3.278 2.82-4.858 1.033-1.562 2.148-3.133 3.731-4.272 0.789-0.55 1.752-0.969 2.77-0.928 1.017 0.022 1.951 0.485 2.712 1.069l-0.392 0.087 1.384-2.731 1.305-2.771c0.839-1.862 1.645-3.74 2.41-5.637 1.531-3.79 2.926-7.637 4.314-11.487 1.389-3.851 2.774-7.706 4.294-11.511 0.759-1.902 1.55-3.794 2.398-5.659 0.842-1.867 1.736-3.72 2.699-5.523 0.938-1.824 1.943-3.601 2.832-5.444 0.919-1.826 1.784-3.681 2.615-5.55 1.672-3.734 3.2-7.532 4.739-11.325 0.769-1.896 1.55-3.789 2.347-5.675 0.807-1.882 1.637-3.753 2.507-5.606 0.875-1.851 1.791-3.682 2.75-5.491l1.479-2.69 1.55-2.651z"/>
</svg>