<svg width="24" height="24" viewBox="0 0 24 24" fill="none" xmlns="http://www.w3.org/2000/svg">
<path d="M24 0H13.6257V2.24309H21.7569V10.3743H24V0Z" fill="#82e8ff"/>
<path d="M22.7653 1.23474L10.2611 13.7389" stroke="#82e8ff" stroke-width="2.24309"/>
<path d="M10.2611 3.47784H3.36463C1.5064 3.47784 0 4.98424 0 6.84248V20.6354C0 22.4936 1.5064 24 3.36463 24H17.1575C19.0158 24 20.5222 22.4936 20.5222 20.6354V13.7389H18.2791V20.6354C18.2791 21.2548 17.7769 21.7569 17.1575 21.7569H3.36463C2.74522 21.7569 2.24309 21.2548 2.24309 20.6354V6.84248C2.24309 6.22307 2.74522 5.72093 3.36463 5.72093H10.2611V3.47784Z" fill="#82e8ff"/>
</svg>
