<svg width="538" height="542" viewBox="0 0 538 542" fill="none" xmlns="http://www.w3.org/2000/svg">
<g clip-path="url(#clip0_11_2)">
<g clip-path="url(#clip1_11_2)">
<rect x="221.082" y="44.8172" width="57" height="57" transform="rotate(-45 221.082 44.8172)" fill="#2C2D35" stroke="#36383F" stroke-width="3"/>
<mask id="mask0_11_2" style="mask-type:alpha" maskUnits="userSpaceOnUse" x="218" y="2" width="86" height="43">
<rect x="218.96" y="2.04128" width="85" height="42.7773" fill="#FF5100"/>
</mask>
<g mask="url(#mask0_11_2)">
<rect x="221.082" y="44.8172" width="57" height="57" transform="rotate(-45 221.082 44.8172)" stroke="#25262C" stroke-width="3"/>
</g>
<rect x="59.8614" y="313.518" width="57" height="57" transform="rotate(-45 59.8614 313.518)" fill="#2C2D35" stroke="#36383F" stroke-width="3"/>
<mask id="mask1_11_2" style="mask-type:alpha" maskUnits="userSpaceOnUse" x="57" y="270" width="86" height="44">
<rect x="57.7401" y="270.742" width="85" height="42.7773" fill="#FF5100"/>
</mask>
<g mask="url(#mask1_11_2)">
<rect x="59.8614" y="313.518" width="57" height="57" transform="rotate(-45 59.8614 313.518)" stroke="#25262C" stroke-width="3"/>
</g>
<rect x="221.082" y="152.297" width="57" height="57" transform="rotate(-45 221.082 152.297)" fill="#2C2D35" stroke="#36383F" stroke-width="3"/>
<mask id="mask2_11_2" style="mask-type:alpha" maskUnits="userSpaceOnUse" x="218" y="109" width="86" height="44">
<rect x="218.96" y="109.522" width="85" height="42.7773" fill="#FF5100"/>
</mask>
<g mask="url(#mask2_11_2)">
<rect x="221.082" y="152.297" width="57" height="57" transform="rotate(-45 221.082 152.297)" stroke="#25262C" stroke-width="3"/>
</g>
<rect x="274.822" y="98.5574" width="57" height="57" transform="rotate(-45 274.822 98.5574)" fill="#2C2D35" stroke="#36383F" stroke-width="3"/>
<mask id="mask3_11_2" style="mask-type:alpha" maskUnits="userSpaceOnUse" x="272" y="55" width="86" height="44">
<rect x="272.701" y="55.7814" width="85" height="42.7773" fill="#FF5100"/>
</mask>
<g mask="url(#mask3_11_2)">
<rect x="274.822" y="98.5574" width="57" height="57" transform="rotate(-45 274.822 98.5574)" stroke="#25262C" stroke-width="3"/>
</g>
<rect x="167.342" y="313.518" width="57" height="57" transform="rotate(-45 167.342 313.518)" fill="#2C2D35" stroke="#36383F" stroke-width="3"/>
<mask id="mask4_11_2" style="mask-type:alpha" maskUnits="userSpaceOnUse" x="165" y="270" width="86" height="44">
<rect x="165.22" y="270.742" width="85" height="42.7773" fill="#FF5100"/>
</mask>
<g mask="url(#mask4_11_2)">
<rect x="167.342" y="313.518" width="57" height="57" transform="rotate(-45 167.342 313.518)" stroke="#25262C" stroke-width="3"/>
</g>
<rect x="274.822" y="206.038" width="57" height="57" transform="rotate(-45 274.822 206.038)" fill="#2C2D35" stroke="#36383F" stroke-width="3"/>
<mask id="mask5_11_2" style="mask-type:alpha" maskUnits="userSpaceOnUse" x="272" y="163" width="86" height="44">
<rect x="272.701" y="163.262" width="85" height="42.7773" fill="#FF5100"/>
</mask>
<g mask="url(#mask5_11_2)">
<rect x="274.822" y="206.038" width="57" height="57" transform="rotate(-45 274.822 206.038)" stroke="#25262C" stroke-width="3"/>
</g>
<rect x="328.562" y="152.297" width="57" height="57" transform="rotate(-45 328.562 152.297)" fill="#2C2D35" stroke="#36383F" stroke-width="3"/>
<mask id="mask6_11_2" style="mask-type:alpha" maskUnits="userSpaceOnUse" x="326" y="109" width="86" height="44">
<rect x="326.441" y="109.522" width="85" height="42.7773" fill="#FF5100"/>
</mask>
<g mask="url(#mask6_11_2)">
<rect x="328.562" y="152.297" width="57" height="57" transform="rotate(-45 328.562 152.297)" stroke="#25262C" stroke-width="3"/>
</g>
<rect x="221.082" y="367.258" width="57" height="57" transform="rotate(-45 221.082 367.258)" fill="#2C2D35" stroke="#36383F" stroke-width="3"/>
<mask id="mask7_11_2" style="mask-type:alpha" maskUnits="userSpaceOnUse" x="218" y="324" width="86" height="44">
<rect x="218.96" y="324.482" width="85" height="42.7773" fill="#FF5100"/>
</mask>
<g mask="url(#mask7_11_2)">
<rect x="221.082" y="367.258" width="57" height="57" transform="rotate(-45 221.082 367.258)" stroke="#25262C" stroke-width="3"/>
</g>
<rect x="274.822" y="313.518" width="57" height="57" transform="rotate(-45 274.822 313.518)" fill="#2C2D35" stroke="#36383F" stroke-width="3"/>
<mask id="mask8_11_2" style="mask-type:alpha" maskUnits="userSpaceOnUse" x="272" y="270" width="86" height="44">
<rect x="272.701" y="270.742" width="85" height="42.7773" fill="#FF5100"/>
</mask>
<g mask="url(#mask8_11_2)">
<rect x="274.822" y="313.518" width="57" height="57" transform="rotate(-45 274.822 313.518)" stroke="#25262C" stroke-width="3"/>
</g>
<rect x="328.562" y="259.778" width="57" height="57" transform="rotate(-45 328.562 259.778)" fill="#2C2D35" stroke="#36383F" stroke-width="3"/>
<mask id="mask9_11_2" style="mask-type:alpha" maskUnits="userSpaceOnUse" x="326" y="217" width="86" height="43">
<rect x="326.441" y="217.002" width="85" height="42.7773" fill="#FF5100"/>
</mask>
<g mask="url(#mask9_11_2)">
<rect x="328.562" y="259.778" width="57" height="57" transform="rotate(-45 328.562 259.778)" stroke="#25262C" stroke-width="3"/>
</g>
<rect x="382.302" y="206.038" width="57" height="57" transform="rotate(-45 382.302 206.038)" fill="#2C2D35" stroke="#36383F" stroke-width="3"/>
<mask id="mask10_11_2" style="mask-type:alpha" maskUnits="userSpaceOnUse" x="380" y="163" width="86" height="44">
<rect x="380.181" y="163.262" width="85" height="42.7773" fill="#FF5100"/>
</mask>
<g mask="url(#mask10_11_2)">
<rect x="382.302" y="206.038" width="57" height="57" transform="rotate(-45 382.302 206.038)" stroke="#25262C" stroke-width="3"/>
</g>
</g>
</g>
<defs>
<clipPath id="clip0_11_2">
<rect width="538" height="542" fill="white"/>
</clipPath>
<clipPath id="clip1_11_2">
<rect width="374.452" height="406.194" fill="white" transform="translate(4 259.778) rotate(-45)"/>
</clipPath>
</defs>
</svg>
