<svg width="55" height="55" viewBox="0 0 55 55" fill="none" xmlns="http://www.w3.org/2000/svg">
<path d="M39 54.2534L47.6561 54.5206L43.5595 46.8906L39 54.2534ZM39 1L43.5595 8.36279L47.6561 0.732721L39 1ZM53.25 27.6267C53.25 37.4982 49.659 46.0142 44.4575 50.4921L45.4362 51.6289C51.0537 46.7928 54.75 37.8086 54.75 27.6267H53.25ZM44.4575 4.76127C49.659 9.23915 53.25 17.7552 53.25 27.6267H54.75C54.75 17.4448 51.0537 8.46056 45.4362 3.62449L44.4575 4.76127Z" fill="#3B73DF"/>
<path d="M16 1L7.34387 0.732723L11.4405 8.36279L16 1ZM16 54.2534L11.4405 46.8906L7.34387 54.5207L16 54.2534ZM1.75 27.6267C1.75 17.7552 5.34099 9.23916 10.5425 4.76127L9.56382 3.62449C3.94628 8.46056 0.25 17.4448 0.25 27.6267H1.75ZM10.5425 50.4921C5.34099 46.0142 1.75 37.4982 1.75 27.6267H0.25C0.25 37.8086 3.94628 46.7928 9.56382 51.6289L10.5425 50.4921Z" fill="#3B73DF"/>
</svg>
